<svg width="20" height="20" viewBox="0 0 20 20" fill="none" xmlns="http://www.w3.org/2000/svg">
<path fill-rule="evenodd" clip-rule="evenodd" d="M19.6488 18.2427C18.2209 15.7743 16.0206 14.0043 13.4528 13.1652C16.0636 11.611 17.3142 8.5041 16.5082 5.57462C15.7022 2.64514 13.0383 0.615173 10 0.615173C6.96168 0.615173 4.2978 2.64514 3.49183 5.57462C2.68586 8.5041 3.93646 11.611 6.5472 13.1652C3.97939 14.0033 1.77907 15.7733 0.35126 18.2427C0.208713 18.4752 0.203537 18.7666 0.337741 19.004C0.471945 19.2413 0.724385 19.3871 0.997034 19.3848C1.26968 19.3825 1.51958 19.2323 1.6497 18.9927C3.41595 15.9402 6.53782 14.1177 10 14.1177C13.4622 14.1177 16.5841 15.9402 18.3503 18.9927C18.4804 19.2323 18.7303 19.3825 19.003 19.3848C19.2756 19.3871 19.5281 19.2413 19.6623 19.004C19.7965 18.7666 19.7913 18.4752 19.6488 18.2427Z" fill="#9A328C"/>
</svg>
