<svg width="54" height="54" viewBox="0 0 54 54" fill="none" xmlns="http://www.w3.org/2000/svg">
<rect width="54" height="54" rx="8" fill="#9A328C"/>
<g clip-path="url(#clip0_10_4690)">
<path d="M27.7312 24.75C26.8031 22.1288 24.3112 20.25 21.375 20.25C17.6456 20.25 14.625 23.2706 14.625 27C14.625 30.7294 17.6456 33.75 21.375 33.75C24.3112 33.75 26.8031 31.8712 27.7312 29.25H32.625V33.75H37.125V29.25H39.375V24.75H27.7312ZM21.375 29.25C20.1319 29.25 19.125 28.2431 19.125 27C19.125 25.7569 20.1319 24.75 21.375 24.75C22.6181 24.75 23.625 25.7569 23.625 27C23.625 28.2431 22.6181 29.25 21.375 29.25Z" fill="white"/>
</g>
<defs>
<clipPath id="clip0_10_4690">
<rect width="27" height="27" fill="white" transform="translate(13.5 13.5)"/>
</clipPath>
</defs>
</svg>
