<svg width="54" height="54" viewBox="0 0 54 54" fill="none" xmlns="http://www.w3.org/2000/svg">
<rect width="54" height="54" rx="8" fill="#9A328C"/>
<path d="M32.2083 24V22C32.2083 19.2 29.9167 17 27 17C24.0833 17 21.7917 19.2 21.7917 22V24C20.0208 24 18.6667 25.3 18.6667 27V34C18.6667 35.7 20.0208 37 21.7917 37H32.2083C33.9792 37 35.3333 35.7 35.3333 34V27C35.3333 25.3 33.9792 24 32.2083 24ZM23.875 22C23.875 20.3 25.2292 19 27 19C28.7708 19 30.125 20.3 30.125 22V24H23.875V22ZM28.1458 30.5L28.0417 30.6V32C28.0417 32.6 27.625 33 27 33C26.375 33 25.9583 32.6 25.9583 32V30.6C25.3333 30 25.2292 29.1 25.8542 28.5C26.4792 27.9 27.4167 27.8 28.0417 28.4C28.6667 28.9 28.7708 29.9 28.1458 30.5Z" fill="white"/>
</svg>
