<svg width="45" height="44" viewBox="0 0 45 44" fill="none" xmlns="http://www.w3.org/2000/svg">
<ellipse cx="22.3333" cy="12.5909" rx="10" ry="9.09091" fill="#9A328C"/>
<path d="M15.5817 24.3068L21.7083 14.6599L27.8349 24.3068H15.5817Z" stroke="#732669"/>
<ellipse cx="1.98184" cy="1.83796" rx="1.98184" ry="1.83796" transform="matrix(0.955159 -0.296092 0.351198 0.936301 17.3333 6.94629)" fill="#732669"/>
<ellipse cx="1.98184" cy="1.83796" rx="1.98184" ry="1.83796" transform="matrix(0.955159 -0.296092 0.351198 0.936301 24.8333 10.3555)" fill="#732669"/>
<ellipse cx="1.98184" cy="1.83796" rx="1.98184" ry="1.83796" transform="matrix(0.955159 -0.296092 0.351198 0.936301 13.3333 13.7645)" fill="#732669"/>
<path d="M6.72093 38.5V31.2273H8.0384V37.3956H11.2415V38.5H6.72093ZM14.2994 38.6065C13.7668 38.6065 13.3051 38.4893 12.9145 38.255C12.5239 38.0206 12.2208 37.6927 12.0054 37.2713C11.7923 36.8499 11.6858 36.3575 11.6858 35.794C11.6858 35.2306 11.7923 34.737 12.0054 34.3132C12.2208 33.8894 12.5239 33.5604 12.9145 33.326C13.3051 33.0916 13.7668 32.9744 14.2994 32.9744C14.8321 32.9744 15.2938 33.0916 15.6844 33.326C16.075 33.5604 16.3769 33.8894 16.5899 34.3132C16.8054 34.737 16.9131 35.2306 16.9131 35.794C16.9131 36.3575 16.8054 36.8499 16.5899 37.2713C16.3769 37.6927 16.075 38.0206 15.6844 38.255C15.2938 38.4893 14.8321 38.6065 14.2994 38.6065ZM14.3065 37.5767C14.5954 37.5767 14.8368 37.4974 15.031 37.3388C15.2251 37.1778 15.3695 36.9624 15.4642 36.6925C15.5613 36.4226 15.6098 36.1219 15.6098 35.7905C15.6098 35.4567 15.5613 35.1548 15.4642 34.8849C15.3695 34.6127 15.2251 34.3961 15.031 34.2351C14.8368 34.0741 14.5954 33.9936 14.3065 33.9936C14.0106 33.9936 13.7644 34.0741 13.5679 34.2351C13.3738 34.3961 13.2282 34.6127 13.1311 34.8849C13.0364 35.1548 12.9891 35.4567 12.9891 35.7905C12.9891 36.1219 13.0364 36.4226 13.1311 36.6925C13.2282 36.9624 13.3738 37.1778 13.5679 37.3388C13.7644 37.4974 14.0106 37.5767 14.3065 37.5767ZM20.3199 33.0455V34.0398H17.1842V33.0455H20.3199ZM17.9584 31.7386H19.2439V36.8594C19.2439 37.0322 19.2699 37.1648 19.322 37.2571C19.3765 37.3471 19.4475 37.4086 19.5351 37.4418C19.6227 37.4749 19.7197 37.4915 19.8263 37.4915C19.9068 37.4915 19.9802 37.4856 20.0464 37.4737C20.1151 37.4619 20.1672 37.4512 20.2027 37.4418L20.4193 38.4467C20.3507 38.4704 20.2524 38.4964 20.1246 38.5249C19.9991 38.5533 19.8452 38.5698 19.6629 38.5746C19.341 38.584 19.0509 38.5355 18.7929 38.429C18.5348 38.3201 18.3301 38.152 18.1785 37.9247C18.0294 37.6974 17.956 37.4134 17.9584 37.0724V31.7386ZM23.7107 33.0455V34.0398H20.5751V33.0455H23.7107ZM21.3492 31.7386H22.6347V36.8594C22.6347 37.0322 22.6608 37.1648 22.7128 37.2571C22.7673 37.3471 22.8383 37.4086 22.9259 37.4418C23.0135 37.4749 23.1106 37.4915 23.2171 37.4915C23.2976 37.4915 23.371 37.4856 23.4373 37.4737C23.5059 37.4619 23.558 37.4512 23.5935 37.4418L23.8101 38.4467C23.7415 38.4704 23.6432 38.4964 23.5154 38.5249C23.3899 38.5533 23.236 38.5698 23.0537 38.5746C22.7318 38.584 22.4418 38.5355 22.1837 38.429C21.9257 38.3201 21.7209 38.152 21.5694 37.9247C21.4202 37.6974 21.3468 37.4134 21.3492 37.0724V31.7386ZM26.734 38.6065C26.1871 38.6065 25.7148 38.4929 25.3171 38.2656C24.9217 38.036 24.6175 37.7116 24.4044 37.2926C24.1914 36.8712 24.0848 36.3752 24.0848 35.8047C24.0848 35.2436 24.1914 34.7512 24.4044 34.3274C24.6199 33.9013 24.9205 33.5698 25.3064 33.3331C25.6923 33.094 26.1457 32.9744 26.6665 32.9744C27.0027 32.9744 27.3199 33.0289 27.6182 33.1378C27.9189 33.2443 28.184 33.41 28.4137 33.6349C28.6457 33.8598 28.828 34.1463 28.9606 34.4943C29.0931 34.84 29.1594 35.2519 29.1594 35.7301V36.1243H24.6885V35.2578H27.9272C27.9248 35.0116 27.8715 34.7926 27.7674 34.6009C27.6632 34.4067 27.5176 34.254 27.3306 34.1428C27.1459 34.0315 26.9305 33.9759 26.6843 33.9759C26.4215 33.9759 26.1907 34.0398 25.9918 34.1676C25.7929 34.2931 25.6379 34.4588 25.5266 34.6648C25.4177 34.8684 25.3621 35.0921 25.3597 35.3359V36.0923C25.3597 36.4096 25.4177 36.6818 25.5337 36.9091C25.6497 37.134 25.8119 37.3068 26.0202 37.4276C26.2285 37.5459 26.4724 37.6051 26.7518 37.6051C26.9388 37.6051 27.108 37.5791 27.2596 37.527C27.4111 37.4725 27.5425 37.3932 27.6537 37.2891C27.765 37.1849 27.8491 37.0559 27.9059 36.902L29.1062 37.0369C29.0304 37.3542 28.886 37.6312 28.6729 37.8679C28.4622 38.1023 28.1923 38.2846 27.8633 38.4148C27.5342 38.5426 27.1578 38.6065 26.734 38.6065ZM29.839 38.5V33.0455H31.0854V33.9545H31.1422C31.2417 33.6397 31.4121 33.397 31.6536 33.2266C31.8974 33.0537 32.1756 32.9673 32.4881 32.9673C32.5591 32.9673 32.6384 32.9709 32.726 32.978C32.816 32.9827 32.8906 32.991 32.9498 33.0028V34.1854C32.8953 34.1664 32.8089 34.1499 32.6905 34.1357C32.5745 34.1191 32.4621 34.1108 32.3532 34.1108C32.1188 34.1108 31.9081 34.1617 31.7211 34.2635C31.5364 34.3629 31.3908 34.5014 31.2843 34.679C31.1777 34.8565 31.1245 35.0613 31.1245 35.2933V38.5H29.839ZM34.3608 40.5455C34.1856 40.5455 34.0235 40.5313 33.8743 40.5028C33.7275 40.4768 33.6103 40.446 33.5228 40.4105L33.8211 39.4091C34.0081 39.4635 34.175 39.4896 34.3218 39.4872C34.4685 39.4848 34.5976 39.4387 34.7088 39.3487C34.8225 39.2611 34.9184 39.1143 34.9965 38.9084L35.1066 38.6136L33.1286 33.0455H34.4922L35.7493 37.1648H35.8061L37.0668 33.0455H38.434L36.25 39.1605C36.1482 39.4493 36.0133 39.6967 35.8452 39.9027C35.6771 40.111 35.4711 40.2696 35.2273 40.3786C34.9858 40.4898 34.697 40.5455 34.3608 40.5455Z" fill="#9A328C"/>
</svg>
