<svg width="57" height="44" viewBox="0 0 57 44" fill="none" xmlns="http://www.w3.org/2000/svg">
<path d="M32.8333 10.984V6H24.5V16.0298H16.1666V26H24.5H32.8333H41.1666V10.984H32.8333Z" fill="#9A328C"/>
<path d="M27.7386 9.65556V10.4081C27.9641 10.3761 28.3573 10.2404 28.5627 10.1024V14.1783H29.3959V8.93726H28.8065C28.5416 9.27048 28.1236 9.55736 27.7377 9.65446L27.7386 9.65556Z" fill="#260D23"/>
<path d="M36.2251 17.4643C36.3113 17.173 36.5615 16.8343 37.1188 16.3455C37.9191 15.6459 38.1941 15.2972 38.1941 14.526C38.1941 13.7547 37.8137 12.9757 36.7458 12.9757C35.786 12.9757 35.3029 13.6984 35.2351 14.5955H36.0298C36.1004 14.078 36.2856 13.758 36.7458 13.758C37.1647 13.758 37.3636 14.0614 37.3636 14.5381C37.3636 15.0148 37.1766 15.2277 36.5349 15.8015C35.61 16.6235 35.2452 17.3782 35.2452 18.2356V18.2984H38.2518L38.3572 17.4632H36.2242L36.2251 17.4643Z" fill="#260D23"/>
<path d="M21.1936 20.204V20.183C21.4402 20.055 21.7454 19.7472 21.7454 19.1149C21.7454 18.3922 21.3118 17.7147 20.3411 17.7147C19.3099 17.7147 18.9313 18.4761 18.868 19.1193H19.6518C19.7114 18.8071 19.8461 18.497 20.3136 18.497C20.7243 18.497 20.9305 18.7674 20.9305 19.1646C20.9305 19.639 20.7307 19.8454 20.2513 19.8454H19.9359V20.6177H20.2999C20.8334 20.6177 21.09 20.9179 21.09 21.474C21.09 21.9705 20.8599 22.3622 20.3594 22.3622C19.8589 22.3622 19.6399 22.019 19.5711 21.6262H18.77C18.8213 22.3203 19.2265 23.1335 20.3329 23.1335C21.5236 23.1335 21.9205 22.2673 21.9205 21.4861C21.9205 20.7049 21.5126 20.3386 21.1936 20.2051V20.204Z" fill="#260D23"/>
<path d="M0.57923 36V28.7273H1.8967V34.8956H5.09983V36H0.57923ZM8.19325 36.1065C7.64637 36.1065 7.17407 35.9929 6.77634 35.7656C6.38098 35.536 6.07677 35.2116 5.8637 34.7926C5.65063 34.3712 5.5441 33.8752 5.5441 33.3047C5.5441 32.7436 5.65063 32.2512 5.8637 31.8274C6.07914 31.4013 6.3798 31.0698 6.76569 30.8331C7.15158 30.594 7.60494 30.4744 8.12578 30.4744C8.46195 30.4744 8.77918 30.5289 9.07748 30.6378C9.37814 30.7443 9.64329 30.91 9.87293 31.1349C10.1049 31.3598 10.2872 31.6463 10.4198 31.9943C10.5524 32.34 10.6187 32.7519 10.6187 33.2301V33.6243H6.14779V32.7578H9.38643C9.38406 32.5116 9.33079 32.2926 9.22663 32.1009C9.12246 31.9067 8.97686 31.754 8.78984 31.6428C8.60518 31.5315 8.38974 31.4759 8.14353 31.4759C7.88075 31.4759 7.64992 31.5398 7.45106 31.6676C7.2522 31.7931 7.09713 31.9588 6.98586 32.1648C6.87696 32.3684 6.82132 32.5921 6.81896 32.8359V33.5923C6.81896 33.9096 6.87696 34.1818 6.99296 34.4091C7.10897 34.634 7.27114 34.8068 7.47947 34.9276C7.6878 35.0459 7.93165 35.1051 8.211 35.1051C8.39803 35.1051 8.5673 35.0791 8.71882 35.027C8.87033 34.9725 9.00172 34.8932 9.11299 34.7891C9.22426 34.6849 9.3083 34.5559 9.36512 34.402L10.5654 34.5369C10.4896 34.8542 10.3452 35.1312 10.1322 35.3679C9.92147 35.6023 9.65158 35.7846 9.32251 35.9148C8.99344 36.0426 8.61702 36.1065 8.19325 36.1065ZM12.8678 36.1101C12.5222 36.1101 12.2109 36.0485 11.9339 35.9254C11.6592 35.8 11.4414 35.6153 11.2805 35.3714C11.1218 35.1276 11.0425 34.8269 11.0425 34.4695C11.0425 34.1617 11.0993 33.9072 11.213 33.706C11.3266 33.5047 11.4817 33.3438 11.6782 33.223C11.8747 33.1023 12.096 33.0111 12.3422 32.9496C12.5908 32.8857 12.8477 32.8395 13.1128 32.8111C13.4324 32.7779 13.6917 32.7483 13.8905 32.7223C14.0894 32.6939 14.2338 32.6513 14.3238 32.5945C14.4161 32.5353 14.4623 32.4441 14.4623 32.321V32.2997C14.4623 32.0322 14.383 31.825 14.2243 31.6783C14.0657 31.5315 13.8373 31.4581 13.539 31.4581C13.2241 31.4581 12.9743 31.5268 12.7897 31.6641C12.6074 31.8014 12.4843 31.9635 12.4204 32.1506L11.2201 31.9801C11.3148 31.6487 11.471 31.3717 11.6888 31.1491C11.9066 30.9242 12.173 30.7562 12.4878 30.6449C12.8027 30.5312 13.1507 30.4744 13.5319 30.4744C13.7947 30.4744 14.0563 30.5052 14.3167 30.5668C14.5771 30.6283 14.815 30.7301 15.0305 30.8722C15.2459 31.0118 15.4187 31.2024 15.5489 31.4439C15.6815 31.6854 15.7478 31.9872 15.7478 32.3494V36H14.512V35.2507H14.4694C14.3912 35.4022 14.2812 35.5443 14.1391 35.6768C13.9994 35.8071 13.8231 35.9124 13.61 35.9929C13.3993 36.071 13.1519 36.1101 12.8678 36.1101ZM13.2016 35.1655C13.4597 35.1655 13.6834 35.1146 13.8728 35.0128C14.0622 34.9086 14.2078 34.7713 14.3096 34.6009C14.4137 34.4304 14.4658 34.2446 14.4658 34.0433V33.4006C14.4256 33.4337 14.3569 33.4645 14.2599 33.4929C14.1652 33.5213 14.0586 33.5462 13.9403 33.5675C13.8219 33.5888 13.7047 33.6077 13.5887 33.6243C13.4727 33.6409 13.3721 33.6551 13.2868 33.6669C13.0951 33.6929 12.9234 33.7356 12.7719 33.7947C12.6204 33.8539 12.5009 33.9368 12.4133 34.0433C12.3257 34.1475 12.2819 34.2824 12.2819 34.4482C12.2819 34.6849 12.3683 34.8636 12.5411 34.9844C12.7139 35.1051 12.9341 35.1655 13.2016 35.1655ZM18.6565 36.0959C18.228 36.0959 17.8445 35.9858 17.506 35.7656C17.1674 35.5455 16.8999 35.2259 16.7034 34.8068C16.5069 34.3878 16.4087 33.8788 16.4087 33.2798C16.4087 32.6738 16.5081 32.1624 16.707 31.7457C16.9082 31.3267 17.1793 31.0107 17.5202 30.7976C17.8611 30.5821 18.2411 30.4744 18.6601 30.4744C18.9797 30.4744 19.2425 30.5289 19.4484 30.6378C19.6544 30.7443 19.8178 30.8733 19.9385 31.0249C20.0592 31.174 20.1528 31.3149 20.219 31.4474H20.2723V28.7273H21.5614V36H20.2972V35.1406H20.219C20.1528 35.2732 20.0569 35.4141 19.9314 35.5632C19.8059 35.71 19.6402 35.8355 19.4342 35.9396C19.2283 36.0438 18.969 36.0959 18.6565 36.0959ZM19.0152 35.0412C19.2875 35.0412 19.5195 34.9678 19.7112 34.821C19.903 34.6719 20.0486 34.4647 20.148 34.1996C20.2475 33.9344 20.2972 33.6255 20.2972 33.2727C20.2972 32.92 20.2475 32.6134 20.148 32.353C20.051 32.0926 19.9065 31.8902 19.7148 31.7457C19.5254 31.6013 19.2922 31.5291 19.0152 31.5291C18.7288 31.5291 18.4896 31.6037 18.2979 31.7528C18.1061 31.902 17.9617 32.108 17.8646 32.3707C17.7676 32.6335 17.719 32.9342 17.719 33.2727C17.719 33.6136 17.7676 33.9179 17.8646 34.1854C17.9641 34.4505 18.1097 34.66 18.3014 34.8139C18.4956 34.9654 18.7335 35.0412 19.0152 35.0412ZM24.938 36.1065C24.3911 36.1065 23.9188 35.9929 23.5211 35.7656C23.1257 35.536 22.8215 35.2116 22.6085 34.7926C22.3954 34.3712 22.2888 33.8752 22.2888 33.3047C22.2888 32.7436 22.3954 32.2512 22.6085 31.8274C22.8239 31.4013 23.1246 31.0698 23.5104 30.8331C23.8963 30.594 24.3497 30.4744 24.8705 30.4744C25.2067 30.4744 25.5239 30.5289 25.8222 30.6378C26.1229 30.7443 26.388 30.91 26.6177 31.1349C26.8497 31.3598 27.032 31.6463 27.1646 31.9943C27.2971 32.34 27.3634 32.7519 27.3634 33.2301V33.6243H22.8925V32.7578H26.1312C26.1288 32.5116 26.0755 32.2926 25.9714 32.1009C25.8672 31.9067 25.7216 31.754 25.5346 31.6428C25.3499 31.5315 25.1345 31.4759 24.8883 31.4759C24.6255 31.4759 24.3947 31.5398 24.1958 31.6676C23.9969 31.7931 23.8419 31.9588 23.7306 32.1648C23.6217 32.3684 23.5661 32.5921 23.5637 32.8359V33.5923C23.5637 33.9096 23.6217 34.1818 23.7377 34.4091C23.8537 34.634 24.0159 34.8068 24.2242 34.9276C24.4326 35.0459 24.6764 35.1051 24.9558 35.1051C25.1428 35.1051 25.3121 35.0791 25.4636 35.027C25.6151 34.9725 25.7465 34.8932 25.8577 34.7891C25.969 34.6849 26.0531 34.5559 26.1099 34.402L27.3102 34.5369C27.2344 34.8542 27.09 35.1312 26.8769 35.3679C26.6662 35.6023 26.3963 35.7846 26.0673 35.9148C25.7382 36.0426 25.3618 36.1065 24.938 36.1065ZM28.043 36V30.5455H29.2894V31.4545H29.3462C29.4457 31.1397 29.6161 30.897 29.8576 30.7266C30.1014 30.5537 30.3796 30.4673 30.6921 30.4673C30.7631 30.4673 30.8424 30.4709 30.93 30.478C31.02 30.4827 31.0946 30.491 31.1538 30.5028V31.6854C31.0993 31.6664 31.0129 31.6499 30.8945 31.6357C30.7785 31.6191 30.6661 31.6108 30.5572 31.6108C30.3228 31.6108 30.1121 31.6617 29.9251 31.7635C29.7404 31.8629 29.5948 32.0014 29.4883 32.179C29.3817 32.3565 29.3285 32.5613 29.3285 32.7933V36H28.043ZM31.6566 36V28.7273H32.9421V31.4474H32.9954C33.0617 31.3149 33.1552 31.174 33.2759 31.0249C33.3967 30.8733 33.56 30.7443 33.766 30.6378C33.972 30.5289 34.2347 30.4744 34.5543 30.4744C34.9757 30.4744 35.3557 30.5821 35.6943 30.7976C36.0352 31.0107 36.3051 31.3267 36.5039 31.7457C36.7052 32.1624 36.8058 32.6738 36.8058 33.2798C36.8058 33.8788 36.7075 34.3878 36.511 34.8068C36.3145 35.2259 36.047 35.5455 35.7085 35.7656C35.3699 35.9858 34.9864 36.0959 34.5579 36.0959C34.2454 36.0959 33.9862 36.0438 33.7802 35.9396C33.5742 35.8355 33.4085 35.71 33.283 35.5632C33.1599 35.4141 33.0641 35.2732 32.9954 35.1406H32.9208V36H31.6566ZM32.9173 33.2727C32.9173 33.6255 32.967 33.9344 33.0664 34.1996C33.1682 34.4647 33.3138 34.6719 33.5032 34.821C33.695 34.9678 33.927 35.0412 34.1992 35.0412C34.4833 35.0412 34.7213 34.9654 34.913 34.8139C35.1048 34.66 35.2492 34.4505 35.3463 34.1854C35.4457 33.9179 35.4954 33.6136 35.4954 33.2727C35.4954 32.9342 35.4469 32.6335 35.3498 32.3707C35.2527 32.108 35.1083 31.902 34.9166 31.7528C34.7248 31.6037 34.4857 31.5291 34.1992 31.5291C33.9246 31.5291 33.6914 31.6013 33.4997 31.7457C33.3079 31.8902 33.1623 32.0926 33.0629 32.353C32.9658 32.6134 32.9173 32.92 32.9173 33.2727ZM39.8699 36.1065C39.3372 36.1065 38.8756 35.9893 38.4849 35.755C38.0943 35.5206 37.7913 35.1927 37.5759 34.7713C37.3628 34.3499 37.2563 33.8575 37.2563 33.294C37.2563 32.7306 37.3628 32.237 37.5759 31.8132C37.7913 31.3894 38.0943 31.0604 38.4849 30.826C38.8756 30.5916 39.3372 30.4744 39.8699 30.4744C40.4026 30.4744 40.8642 30.5916 41.2548 30.826C41.6455 31.0604 41.9473 31.3894 42.1604 31.8132C42.3758 32.237 42.4835 32.7306 42.4835 33.294C42.4835 33.8575 42.3758 34.3499 42.1604 34.7713C41.9473 35.1927 41.6455 35.5206 41.2548 35.755C40.8642 35.9893 40.4026 36.1065 39.8699 36.1065ZM39.877 35.0767C40.1658 35.0767 40.4073 34.9974 40.6014 34.8388C40.7956 34.6778 40.94 34.4624 41.0347 34.1925C41.1317 33.9226 41.1803 33.6219 41.1803 33.2905C41.1803 32.9567 41.1317 32.6548 41.0347 32.3849C40.94 32.1127 40.7956 31.8961 40.6014 31.7351C40.4073 31.5741 40.1658 31.4936 39.877 31.4936C39.5811 31.4936 39.3349 31.5741 39.1384 31.7351C38.9442 31.8961 38.7986 32.1127 38.7016 32.3849C38.6069 32.6548 38.5595 32.9567 38.5595 33.2905C38.5595 33.6219 38.6069 33.9226 38.7016 34.1925C38.7986 34.4624 38.9442 34.6778 39.1384 34.8388C39.3349 34.9974 39.5811 35.0767 39.877 35.0767ZM44.7362 36.1101C44.3906 36.1101 44.0793 36.0485 43.8023 35.9254C43.5276 35.8 43.3098 35.6153 43.1489 35.3714C42.9902 35.1276 42.9109 34.8269 42.9109 34.4695C42.9109 34.1617 42.9678 33.9072 43.0814 33.706C43.195 33.5047 43.3501 33.3438 43.5466 33.223C43.7431 33.1023 43.9644 33.0111 44.2106 32.9496C44.4592 32.8857 44.7161 32.8395 44.9812 32.8111C45.3008 32.7779 45.5601 32.7483 45.7589 32.7223C45.9578 32.6939 46.1022 32.6513 46.1922 32.5945C46.2845 32.5353 46.3307 32.4441 46.3307 32.321V32.2997C46.3307 32.0322 46.2514 31.825 46.0928 31.6783C45.9341 31.5315 45.7057 31.4581 45.4074 31.4581C45.0925 31.4581 44.8428 31.5268 44.6581 31.6641C44.4758 31.8014 44.3527 31.9635 44.2888 32.1506L43.0885 31.9801C43.1832 31.6487 43.3394 31.3717 43.5572 31.1491C43.775 30.9242 44.0414 30.7562 44.3562 30.6449C44.6711 30.5312 45.0191 30.4744 45.4003 30.4744C45.6631 30.4744 45.9247 30.5052 46.1851 30.5668C46.4455 30.6283 46.6834 30.7301 46.8989 30.8722C47.1143 31.0118 47.2871 31.2024 47.4173 31.4439C47.5499 31.6854 47.6162 31.9872 47.6162 32.3494V36H46.3804V35.2507H46.3378C46.2597 35.4022 46.1496 35.5443 46.0075 35.6768C45.8678 35.8071 45.6915 35.9124 45.4784 35.9929C45.2677 36.071 45.0203 36.1101 44.7362 36.1101ZM45.07 35.1655C45.3281 35.1655 45.5518 35.1146 45.7412 35.0128C45.9306 34.9086 46.0762 34.7713 46.178 34.6009C46.2821 34.4304 46.3342 34.2446 46.3342 34.0433V33.4006C46.294 33.4337 46.2253 33.4645 46.1283 33.4929C46.0336 33.5213 45.927 33.5462 45.8087 33.5675C45.6903 33.5888 45.5731 33.6077 45.4571 33.6243C45.3411 33.6409 45.2405 33.6551 45.1553 33.6669C44.9635 33.6929 44.7919 33.7356 44.6403 33.7947C44.4888 33.8539 44.3693 33.9368 44.2817 34.0433C44.1941 34.1475 44.1503 34.2824 44.1503 34.4482C44.1503 34.6849 44.2367 34.8636 44.4095 34.9844C44.5823 35.1051 44.8025 35.1655 45.07 35.1655ZM48.5008 36V30.5455H49.7473V31.4545H49.8041C49.9035 31.1397 50.074 30.897 50.3154 30.7266C50.5593 30.5537 50.8374 30.4673 51.1499 30.4673C51.221 30.4673 51.3003 30.4709 51.3879 30.478C51.4778 30.4827 51.5524 30.491 51.6116 30.5028V31.6854C51.5571 31.6664 51.4707 31.6499 51.3524 31.6357C51.2364 31.6191 51.1239 31.6108 51.015 31.6108C50.7806 31.6108 50.5699 31.6617 50.3829 31.7635C50.1982 31.8629 50.0526 32.0014 49.9461 32.179C49.8396 32.3565 49.7863 32.5613 49.7863 32.7933V36H48.5008ZM53.8572 36.0959C53.4287 36.0959 53.0452 35.9858 52.7066 35.7656C52.3681 35.5455 52.1006 35.2259 51.9041 34.8068C51.7076 34.3878 51.6093 33.8788 51.6093 33.2798C51.6093 32.6738 51.7087 32.1624 51.9076 31.7457C52.1088 31.3267 52.3799 31.0107 52.7208 30.7976C53.0617 30.5821 53.4417 30.4744 53.8607 30.4744C54.1803 30.4744 54.4431 30.5289 54.6491 30.6378C54.8551 30.7443 55.0184 30.8733 55.1391 31.0249C55.2599 31.174 55.3534 31.3149 55.4197 31.4474H55.4729V28.7273H56.762V36H55.4978V35.1406H55.4197C55.3534 35.2732 55.2575 35.4141 55.132 35.5632C55.0066 35.71 54.8408 35.8355 54.6349 35.9396C54.4289 36.0438 54.1697 36.0959 53.8572 36.0959ZM54.2158 35.0412C54.4881 35.0412 54.7201 34.9678 54.9119 34.821C55.1036 34.6719 55.2492 34.4647 55.3487 34.1996C55.4481 33.9344 55.4978 33.6255 55.4978 33.2727C55.4978 32.92 55.4481 32.6134 55.3487 32.353C55.2516 32.0926 55.1072 31.8902 54.9154 31.7457C54.726 31.6013 54.4928 31.5291 54.2158 31.5291C53.9294 31.5291 53.6903 31.6037 53.4985 31.7528C53.3068 31.902 53.1623 32.108 53.0653 32.3707C52.9682 32.6335 52.9197 32.9342 52.9197 33.2727C52.9197 33.6136 52.9682 33.9179 53.0653 34.1854C53.1647 34.4505 53.3103 34.66 53.5021 34.8139C53.6962 34.9654 53.9341 35.0412 54.2158 35.0412Z" fill="#9A328C"/>
</svg>
