<svg width="56" height="44" viewBox="0 0 56 44" fill="none" xmlns="http://www.w3.org/2000/svg">
<path d="M28 23.9972C33.5228 23.9972 38 19.52 38 13.9972C38 8.47434 33.5228 3.99719 28 3.99719C22.4772 3.99719 18 8.47434 18 13.9972C18 19.52 22.4772 23.9972 28 23.9972Z" fill="#9A328C"/>
<path d="M34.8162 22.1475C34.8162 22.1475 28.5158 27.9855 21.1749 22.1475L19.4406 27.0029H36.2036L34.8162 22.1475Z" fill="#9A328C"/>
<path d="M23.2601 10.7365C23.9625 10.7365 24.5319 10.1671 24.5319 9.46469C24.5319 8.76229 23.9625 8.19287 23.2601 8.19287C22.5577 8.19287 21.9883 8.76229 21.9883 9.46469C21.9883 10.1671 22.5577 10.7365 23.2601 10.7365Z" fill="#732669"/>
<path d="M5.87071 39V31.7273H8.59799C9.1567 31.7273 9.62545 31.8314 10.0042 32.0398C10.3854 32.2481 10.673 32.5346 10.8672 32.8991C11.0637 33.2614 11.1619 33.6733 11.1619 34.1349C11.1619 34.6013 11.0637 35.0156 10.8672 35.3778C10.6707 35.7401 10.3807 36.0253 9.99713 36.2337C9.61361 36.4396 9.14131 36.5426 8.58023 36.5426H6.7727V35.4595H8.40267C8.72938 35.4595 8.9969 35.4027 9.20523 35.2891C9.41356 35.1754 9.56745 35.0192 9.66688 34.8203C9.76868 34.6214 9.81958 34.393 9.81958 34.1349C9.81958 33.8769 9.76868 33.6496 9.66688 33.4531C9.56745 33.2566 9.41238 33.1039 9.20168 32.995C8.99335 32.8838 8.72464 32.8281 8.39557 32.8281H7.18818V39H5.87071ZM11.8414 39V33.5455H13.0879V34.4545H13.1447C13.2441 34.1397 13.4146 33.897 13.6561 33.7266C13.8999 33.5537 14.1781 33.4673 14.4906 33.4673C14.5616 33.4673 14.6409 33.4709 14.7285 33.478C14.8185 33.4827 14.8931 33.491 14.9522 33.5028V34.6854C14.8978 34.6664 14.8114 34.6499 14.693 34.6357C14.577 34.6191 14.4645 34.6108 14.3556 34.6108C14.1213 34.6108 13.9106 34.6617 13.7235 34.7635C13.5389 34.8629 13.3933 35.0014 13.2868 35.179C13.1802 35.3565 13.127 35.5613 13.127 35.7933V39H11.8414ZM17.5884 39.1065C17.0416 39.1065 16.5693 38.9929 16.1715 38.7656C15.7762 38.536 15.472 38.2116 15.2589 37.7926C15.0458 37.3712 14.9393 36.8752 14.9393 36.3047C14.9393 35.7436 15.0458 35.2512 15.2589 34.8274C15.4743 34.4013 15.775 34.0698 16.1609 33.8331C16.5468 33.594 17.0001 33.4744 17.521 33.4744C17.8572 33.4744 18.1744 33.5289 18.4727 33.6378C18.7733 33.7443 19.0385 33.91 19.2681 34.1349C19.5001 34.3598 19.6824 34.6463 19.815 34.9943C19.9476 35.34 20.0139 35.7519 20.0139 36.2301V36.6243H15.543V35.7578H18.7816C18.7793 35.5116 18.726 35.2926 18.6218 35.1009C18.5177 34.9067 18.3721 34.754 18.185 34.6428C18.0004 34.5315 17.7849 34.4759 17.5387 34.4759C17.2759 34.4759 17.0451 34.5398 16.8463 34.6676C16.6474 34.7931 16.4923 34.9588 16.3811 35.1648C16.2722 35.3684 16.2165 35.5921 16.2142 35.8359V36.5923C16.2142 36.9096 16.2722 37.1818 16.3882 37.4091C16.5042 37.634 16.6663 37.8068 16.8747 37.9276C17.083 38.0459 17.3268 38.1051 17.6062 38.1051C17.7932 38.1051 17.9625 38.0791 18.114 38.027C18.2655 37.9725 18.3969 37.8932 18.5082 37.7891C18.6195 37.6849 18.7035 37.5559 18.7603 37.402L19.9606 37.5369C19.8849 37.8542 19.7404 38.1312 19.5274 38.3679C19.3167 38.6023 19.0468 38.7846 18.7177 38.9148C18.3886 39.0426 18.0122 39.1065 17.5884 39.1065ZM22.7176 39.0959C22.2891 39.0959 21.9055 38.9858 21.567 38.7656C21.2284 38.5455 20.9609 38.2259 20.7644 37.8068C20.5679 37.3878 20.4697 36.8788 20.4697 36.2798C20.4697 35.6738 20.5691 35.1624 20.768 34.7457C20.9692 34.3267 21.2403 34.0107 21.5812 33.7976C21.9221 33.5821 22.3021 33.4744 22.7211 33.4744C23.0407 33.4744 23.3035 33.5289 23.5095 33.6378C23.7154 33.7443 23.8788 33.8733 23.9995 34.0249C24.1203 34.174 24.2138 34.3149 24.2801 34.4474H24.3333V31.7273H25.6224V39H24.3582V38.1406H24.2801C24.2138 38.2732 24.1179 38.4141 23.9924 38.5632C23.8669 38.71 23.7012 38.8355 23.4953 38.9396C23.2893 39.0438 23.0301 39.0959 22.7176 39.0959ZM23.0762 38.0412C23.3485 38.0412 23.5805 37.9678 23.7722 37.821C23.964 37.6719 24.1096 37.4647 24.209 37.1996C24.3085 36.9344 24.3582 36.6255 24.3582 36.2727C24.3582 35.92 24.3085 35.6134 24.209 35.353C24.112 35.0926 23.9676 34.8902 23.7758 34.7457C23.5864 34.6013 23.3532 34.5291 23.0762 34.5291C22.7898 34.5291 22.5507 34.6037 22.3589 34.7528C22.1671 34.902 22.0227 35.108 21.9257 35.3707C21.8286 35.6335 21.7801 35.9342 21.7801 36.2727C21.7801 36.6136 21.8286 36.9179 21.9257 37.1854C22.0251 37.4505 22.1707 37.66 22.3624 37.8139C22.5566 37.9654 22.7945 38.0412 23.0762 38.0412ZM26.5842 39V33.5455H27.8697V39H26.5842ZM27.2305 32.7713C27.0269 32.7713 26.8518 32.7038 26.705 32.5689C26.5582 32.4316 26.4848 32.267 26.4848 32.0753C26.4848 31.8812 26.5582 31.7166 26.705 31.5817C26.8518 31.4444 27.0269 31.3757 27.2305 31.3757C27.4365 31.3757 27.6117 31.4444 27.7561 31.5817C27.9029 31.7166 27.9763 31.8812 27.9763 32.0753C27.9763 32.267 27.9029 32.4316 27.7561 32.5689C27.6117 32.7038 27.4365 32.7713 27.2305 32.7713ZM31.1629 39.1065C30.6184 39.1065 30.1508 38.987 29.7602 38.7479C29.372 38.5088 29.0725 38.1785 28.8618 37.7571C28.6535 37.3333 28.5493 36.8456 28.5493 36.294C28.5493 35.7401 28.6558 35.2512 28.8689 34.8274C29.082 34.4013 29.3826 34.0698 29.7709 33.8331C30.1615 33.594 30.6231 33.4744 31.1558 33.4744C31.5985 33.4744 31.9903 33.5561 32.3312 33.7195C32.6745 33.8804 32.948 34.1089 33.1516 34.4048C33.3552 34.6984 33.4712 35.0417 33.4996 35.4347H32.2709C32.2212 35.1719 32.1028 34.9529 31.9158 34.7777C31.7311 34.6001 31.4837 34.5114 31.1736 34.5114C30.9108 34.5114 30.68 34.5824 30.4811 34.7244C30.2822 34.8641 30.1272 35.0653 30.0159 35.3281C29.907 35.5909 29.8526 35.9058 29.8526 36.2727C29.8526 36.6444 29.907 36.964 30.0159 37.2315C30.1248 37.4967 30.2775 37.7015 30.474 37.8459C30.6729 37.9879 30.9061 38.0589 31.1736 38.0589C31.363 38.0589 31.5322 38.0234 31.6814 37.9524C31.8329 37.879 31.9596 37.7737 32.0614 37.6364C32.1632 37.4991 32.233 37.3321 32.2709 37.1357H33.4996C33.4688 37.5215 33.3552 37.8636 33.1587 38.1619C32.9622 38.4579 32.6946 38.6899 32.3561 38.858C32.0176 39.0237 31.6198 39.1065 31.1629 39.1065ZM36.8709 33.5455V34.5398H33.7352V33.5455H36.8709ZM34.5094 32.2386H35.7949V37.3594C35.7949 37.5322 35.8209 37.6648 35.873 37.7571C35.9274 37.8471 35.9985 37.9086 36.0861 37.9418C36.1737 37.9749 36.2707 37.9915 36.3773 37.9915C36.4578 37.9915 36.5311 37.9856 36.5974 37.9737C36.6661 37.9619 36.7182 37.9512 36.7537 37.9418L36.9703 38.9467C36.9016 38.9704 36.8034 38.9964 36.6756 39.0249C36.5501 39.0533 36.3962 39.0698 36.2139 39.0746C35.8919 39.084 35.6019 39.0355 35.3439 38.929C35.0858 38.8201 34.881 38.652 34.7295 38.4247C34.5804 38.1974 34.507 37.9134 34.5094 37.5724V32.2386ZM37.538 39V33.5455H38.8235V39H37.538ZM38.1843 32.7713C37.9807 32.7713 37.8055 32.7038 37.6587 32.5689C37.5119 32.4316 37.4385 32.267 37.4385 32.0753C37.4385 31.8812 37.5119 31.7166 37.6587 31.5817C37.8055 31.4444 37.9807 31.3757 38.1843 31.3757C38.3902 31.3757 38.5654 31.4444 38.7099 31.5817C38.8566 31.7166 38.93 31.8812 38.93 32.0753C38.93 32.267 38.8566 32.4316 38.7099 32.5689C38.5654 32.7038 38.3902 32.7713 38.1843 32.7713ZM42.1167 39.1065C41.584 39.1065 41.1223 38.9893 40.7317 38.755C40.3411 38.5206 40.0381 38.1927 39.8226 37.7713C39.6096 37.3499 39.503 36.8575 39.503 36.294C39.503 35.7306 39.6096 35.237 39.8226 34.8132C40.0381 34.3894 40.3411 34.0604 40.7317 33.826C41.1223 33.5916 41.584 33.4744 42.1167 33.4744C42.6493 33.4744 43.111 33.5916 43.5016 33.826C43.8922 34.0604 44.1941 34.3894 44.4071 34.8132C44.6226 35.237 44.7303 35.7306 44.7303 36.294C44.7303 36.8575 44.6226 37.3499 44.4071 37.7713C44.1941 38.1927 43.8922 38.5206 43.5016 38.755C43.111 38.9893 42.6493 39.1065 42.1167 39.1065ZM42.1238 38.0767C42.4126 38.0767 42.6541 37.9974 42.8482 37.8388C43.0423 37.6778 43.1867 37.4624 43.2814 37.1925C43.3785 36.9226 43.427 36.6219 43.427 36.2905C43.427 35.9567 43.3785 35.6548 43.2814 35.3849C43.1867 35.1127 43.0423 34.8961 42.8482 34.7351C42.6541 34.5741 42.4126 34.4936 42.1238 34.4936C41.8278 34.4936 41.5816 34.5741 41.3851 34.7351C41.191 34.8961 41.0454 35.1127 40.9483 35.3849C40.8536 35.6548 40.8063 35.9567 40.8063 36.2905C40.8063 36.6219 40.8536 36.9226 40.9483 37.1925C41.0454 37.4624 41.191 37.6778 41.3851 37.8388C41.5816 37.9974 41.8278 38.0767 42.1238 38.0767ZM46.6989 35.804V39H45.4134V33.5455H46.6421V34.4723H46.706C46.8315 34.1669 47.0315 33.9242 47.3061 33.7443C47.5831 33.5644 47.9252 33.4744 48.3324 33.4744C48.7088 33.4744 49.0367 33.5549 49.3161 33.7159C49.5978 33.8769 49.8156 34.1101 49.9695 34.4155C50.1257 34.7209 50.2027 35.0914 50.2003 35.527V39H48.9148V35.7259C48.9148 35.3613 48.8201 35.076 48.6307 34.87C48.4437 34.6641 48.1845 34.5611 47.853 34.5611C47.6281 34.5611 47.4281 34.6108 47.2529 34.7102C47.08 34.8073 46.9439 34.9482 46.8445 35.1328C46.7474 35.3175 46.6989 35.5412 46.6989 35.804Z" fill="#9A328C"/>
</svg>
