<svg width="44" height="44" viewBox="0 0 44 44" fill="none" xmlns="http://www.w3.org/2000/svg">
<path fill-rule="evenodd" clip-rule="evenodd" d="M31.6488 24.2428C30.2209 21.7743 28.0206 20.0043 25.4528 19.1653C28.0636 17.6111 29.3142 14.5042 28.5082 11.5747C27.7022 8.6452 25.0383 6.61523 22 6.61523C18.9617 6.61523 16.2978 8.6452 15.4918 11.5747C14.6859 14.5042 15.9365 17.6111 18.5472 19.1653C15.9794 20.0034 13.7791 21.7734 12.3513 24.2428C12.2087 24.4752 12.2035 24.7667 12.3377 25.004C12.4719 25.2414 12.7244 25.3872 12.997 25.3849C13.2697 25.3825 13.5196 25.2324 13.6497 24.9928C15.4159 21.9403 18.5378 20.1178 22 20.1178C25.4622 20.1178 28.5841 21.9403 30.3503 24.9928C30.4804 25.2324 30.7303 25.3825 31.003 25.3849C31.2756 25.3872 31.5281 25.2414 31.6623 25.004C31.7965 24.7667 31.7913 24.4752 31.6488 24.2428Z" fill="#9A328C"/>
<path d="M4.53836 35.3848H3.13211L5.69248 28.112H7.3189L9.88282 35.3848H8.47657L6.5341 29.6035H6.47728L4.53836 35.3848ZM4.58453 32.5332H8.41976V33.5914H4.58453V32.5332ZM12.5892 35.4913C12.0447 35.4913 11.5771 35.3717 11.1865 35.1326C10.7982 34.8935 10.4987 34.5633 10.288 34.1419C10.0797 33.7181 9.97553 33.2304 9.97553 32.6788C9.97553 32.1248 10.0821 31.6359 10.2951 31.2122C10.5082 30.786 10.8089 30.4546 11.1971 30.2179C11.5877 29.9788 12.0494 29.8592 12.5821 29.8592C13.0248 29.8592 13.4166 29.9409 13.7575 30.1042C14.1008 30.2652 14.3742 30.4937 14.5778 30.7896C14.7814 31.0832 14.8974 31.4264 14.9258 31.8194H13.6971C13.6474 31.5566 13.529 31.3377 13.342 31.1625C13.1574 30.9849 12.91 30.8961 12.5998 30.8961C12.337 30.8961 12.1062 30.9672 11.9074 31.1092C11.7085 31.2489 11.5534 31.4501 11.4422 31.7129C11.3333 31.9757 11.2788 32.2905 11.2788 32.6575C11.2788 33.0292 11.3333 33.3488 11.4422 33.6163C11.5511 33.8815 11.7038 34.0862 11.9002 34.2306C12.0991 34.3727 12.3323 34.4437 12.5998 34.4437C12.7892 34.4437 12.9585 34.4082 13.1076 34.3372C13.2592 34.2638 13.3858 34.1584 13.4876 34.0211C13.5894 33.8838 13.6592 33.7169 13.6971 33.5204H14.9258C14.895 33.9063 14.7814 34.2484 14.5849 34.5467C14.3884 34.8426 14.1209 35.0746 13.7824 35.2427C13.4438 35.4084 13.0461 35.4913 12.5892 35.4913ZM17.9527 35.4913C17.4081 35.4913 16.9406 35.3717 16.55 35.1326C16.1617 34.8935 15.8622 34.5633 15.6515 34.1419C15.4432 33.7181 15.339 33.2304 15.339 32.6788C15.339 32.1248 15.4456 31.6359 15.6586 31.2122C15.8717 30.786 16.1724 30.4546 16.5606 30.2179C16.9512 29.9788 17.4129 29.8592 17.9456 29.8592C18.3883 29.8592 18.7801 29.9409 19.121 30.1042C19.4643 30.2652 19.7377 30.4937 19.9413 30.7896C20.1449 31.0832 20.2609 31.4264 20.2893 31.8194H19.0606C19.0109 31.5566 18.8925 31.3377 18.7055 31.1625C18.5208 30.9849 18.2734 30.8961 17.9633 30.8961C17.7005 30.8961 17.4697 30.9672 17.2708 31.1092C17.072 31.2489 16.9169 31.4501 16.8056 31.7129C16.6967 31.9757 16.6423 32.2905 16.6423 32.6575C16.6423 33.0292 16.6967 33.3488 16.8056 33.6163C16.9145 33.8815 17.0672 34.0862 17.2637 34.2306C17.4626 34.3727 17.6958 34.4437 17.9633 34.4437C18.1527 34.4437 18.322 34.4082 18.4711 34.3372C18.6226 34.2638 18.7493 34.1584 18.8511 34.0211C18.9529 33.8838 19.0227 33.7169 19.0606 33.5204H20.2893C20.2585 33.9063 20.1449 34.2484 19.9484 34.5467C19.7519 34.8426 19.4844 35.0746 19.1458 35.2427C18.8073 35.4084 18.4096 35.4913 17.9527 35.4913ZM23.3161 35.4913C22.7835 35.4913 22.3218 35.3741 21.9312 35.1397C21.5406 34.9054 21.2375 34.5775 21.0221 34.1561C20.809 33.7347 20.7025 33.2422 20.7025 32.6788C20.7025 32.1154 20.809 31.6217 21.0221 31.198C21.2375 30.7742 21.5406 30.4451 21.9312 30.2108C22.3218 29.9764 22.7835 29.8592 23.3161 29.8592C23.8488 29.8592 24.3105 29.9764 24.7011 30.2108C25.0917 30.4451 25.3936 30.7742 25.6066 31.198C25.8221 31.6217 25.9298 32.1154 25.9298 32.6788C25.9298 33.2422 25.8221 33.7347 25.6066 34.1561C25.3936 34.5775 25.0917 34.9054 24.7011 35.1397C24.3105 35.3741 23.8488 35.4913 23.3161 35.4913ZM23.3232 34.4615C23.6121 34.4615 23.8535 34.3822 24.0477 34.2235C24.2418 34.0626 24.3862 33.8471 24.4809 33.5772C24.578 33.3074 24.6265 33.0067 24.6265 32.6752C24.6265 32.3414 24.578 32.0396 24.4809 31.7697C24.3862 31.4975 24.2418 31.2808 24.0477 31.1199C23.8535 30.9589 23.6121 30.8784 23.3232 30.8784C23.0273 30.8784 22.7811 30.9589 22.5846 31.1199C22.3905 31.2808 22.2449 31.4975 22.1478 31.7697C22.0531 32.0396 22.0058 32.3414 22.0058 32.6752C22.0058 33.0067 22.0531 33.3074 22.1478 33.5772C22.2449 33.8471 22.3905 34.0626 22.5846 34.2235C22.7811 34.3822 23.0273 34.4615 23.3232 34.4615ZM30.0894 33.0907V29.9302H31.3749V35.3848H30.1285V34.4153H30.0717C29.9486 34.7207 29.7461 34.9705 29.4644 35.1646C29.1851 35.3587 28.8406 35.4558 28.431 35.4558C28.0736 35.4558 27.7575 35.3765 27.4829 35.2179C27.2106 35.0569 26.9976 34.8237 26.8437 34.5183C26.6898 34.2105 26.6129 33.8388 26.6129 33.4032V29.9302H27.8984V33.2044C27.8984 33.55 27.9931 33.8246 28.1825 34.0282C28.3719 34.2318 28.6204 34.3336 28.9282 34.3336C29.1176 34.3336 29.3011 34.2875 29.4786 34.1951C29.6562 34.1028 29.8018 33.9655 29.9154 33.7832C30.0314 33.5985 30.0894 33.3677 30.0894 33.0907ZM33.5744 32.1887V35.3848H32.2888V29.9302H33.5175V30.8571H33.5815C33.7069 30.5517 33.907 30.309 34.1816 30.1291C34.4586 29.9492 34.8007 29.8592 35.2079 29.8592C35.5843 29.8592 35.9122 29.9397 36.1915 30.1007C36.4733 30.2617 36.6911 30.4949 36.845 30.8002C37.0012 31.1056 37.0781 31.4761 37.0758 31.9118V35.3848H35.7903V32.1106C35.7903 31.746 35.6956 31.4608 35.5062 31.2548C35.3191 31.0488 35.0599 30.9458 34.7285 30.9458C34.5036 30.9458 34.3035 30.9956 34.1283 31.095C33.9555 31.1921 33.8194 31.3329 33.72 31.5176C33.6229 31.7022 33.5744 31.926 33.5744 32.1887ZM40.6983 29.9302V30.9245H37.5627V29.9302H40.6983ZM38.3368 28.6234H39.6223V33.7441C39.6223 33.917 39.6484 34.0495 39.7005 34.1419C39.7549 34.2318 39.8259 34.2934 39.9135 34.3265C40.0011 34.3597 40.0982 34.3762 40.2047 34.3762C40.2852 34.3762 40.3586 34.3703 40.4249 34.3585C40.4935 34.3467 40.5456 34.336 40.5811 34.3265L40.7978 35.3315C40.7291 35.3552 40.6308 35.3812 40.503 35.4096C40.3775 35.438 40.2237 35.4546 40.0414 35.4593C39.7194 35.4688 39.4294 35.4203 39.1713 35.3137C38.9133 35.2048 38.7085 35.0368 38.557 34.8095C38.4078 34.5822 38.3344 34.2981 38.3368 33.9572V28.6234Z" fill="#9A328C"/>
</svg>
