<svg width="38" height="29" viewBox="0 0 38 29" fill="none" xmlns="http://www.w3.org/2000/svg">
<mask id="mask0_10_3974" style="mask-type:luminance" maskUnits="userSpaceOnUse" x="22" y="8" width="16" height="13">
<path d="M22.3054 8.28827H37.2559V20.8062H22.3054V8.28827Z" fill="white"/>
</mask>
<g mask="url(#mask0_10_3974)">
<path d="M32.9059 14.5263L31.0361 12.6569L29.1663 14.5263L31.0361 16.3961L32.9059 14.5263ZM31.0361 8.30692C31.1456 8.30692 31.255 8.34883 31.3384 8.43227L37.1306 14.224C37.2105 14.3043 37.2555 14.413 37.2555 14.5263C37.2555 14.64 37.2105 14.7487 37.1306 14.829L31.3384 20.6208C31.1716 20.7876 30.9007 20.7876 30.7334 20.6208L26.9027 16.7904L26.8584 16.8346C26.6911 17.0015 26.4203 17.0015 26.2534 16.8346C26.0861 16.6674 26.0861 16.3965 26.2534 16.2292L30.7334 11.7492C30.9007 11.5819 31.1716 11.5819 31.3384 11.7492L33.8136 14.224C33.8939 14.3043 33.939 14.413 33.939 14.5263C33.939 14.64 33.8939 14.7487 33.8136 14.829L31.3384 17.3038C31.1716 17.4711 30.9007 17.4711 30.7334 17.3038L28.5609 15.1317L27.5077 16.185L31.0361 19.713L36.2224 14.5263L31.0361 9.33999L23.0731 17.3027C22.9058 17.4699 22.6353 17.4699 22.468 17.3027C22.3008 17.1354 22.3008 16.8649 22.468 16.698L30.7334 8.43227C30.8168 8.34883 30.9263 8.30692 31.0361 8.30692Z" fill="url(#paint0_linear_10_3974)"/>
</g>
<mask id="mask1_10_3974" style="mask-type:luminance" maskUnits="userSpaceOnUse" x="16" y="0" width="14" height="13">
<path d="M16.5432 0H29.0611V12.5603H16.5432V0Z" fill="white"/>
</mask>
<g mask="url(#mask1_10_3974)">
<path d="M18.638 7.48961C18.7475 7.48961 18.8573 7.53113 18.9407 7.61496L23.0734 11.748C23.2407 11.9149 23.2407 12.1858 23.0734 12.353C22.9061 12.5199 22.6353 12.5199 22.4684 12.353L18.3357 8.21998C18.1684 8.0531 18.1684 7.78183 18.3357 7.61496C18.4191 7.53113 18.5286 7.48961 18.638 7.48961ZM24.6405 6.25861L22.7711 4.38883L20.9009 6.25861L22.7711 8.12839L24.6405 6.25861ZM22.7711 3.35537C22.8844 3.35537 22.9931 3.40077 23.0734 3.48111L25.5482 5.95629C25.7155 6.12317 25.7155 6.39405 25.5482 6.56131L23.0734 9.0365C22.9131 9.19678 22.6287 9.19678 22.4684 9.0365L19.9932 6.56131C19.8263 6.39405 19.8263 6.12317 19.9932 5.95629L22.4684 3.48111C22.5487 3.40077 22.6574 3.35537 22.7711 3.35537ZM22.7711 0.0388184C22.8844 0.0388184 22.9931 0.083836 23.0734 0.164169L28.8651 5.95629C29.032 6.12317 29.032 6.39405 28.8651 6.56131L24.734 10.6932C24.5671 10.8605 24.2963 10.8605 24.129 10.6932C23.9617 10.5263 23.9617 10.2555 24.1286 10.0882L27.9574 6.25861L22.7711 1.07189L17.2813 6.56131C17.1144 6.72819 16.8439 6.72819 16.6767 6.56131C16.5094 6.39405 16.5094 6.12317 16.6767 5.95629L22.4684 0.164169C22.5487 0.083836 22.6574 0.0388184 22.7711 0.0388184Z" fill="url(#paint1_linear_10_3974)"/>
</g>
<path d="M19.0109 15.7842C19.1165 15.7842 19.2221 15.8276 19.3026 15.9148L23.2915 20.2366C23.4528 20.411 23.4528 20.6945 23.2915 20.8689C23.1305 21.0437 22.8692 21.0437 22.7079 20.8689L18.7189 16.5471C18.5576 16.3727 18.5576 16.0896 18.7189 15.9148C18.7994 15.8276 18.9054 15.7842 19.0109 15.7842ZM28.587 14.0524C28.6925 14.0524 28.7985 14.0966 28.879 14.1838C29.0403 14.3582 29.0403 14.6417 28.879 14.8161L24.8901 19.1375C24.7287 19.3119 24.4674 19.3119 24.306 19.1375C24.1451 18.9627 24.1451 18.6796 24.306 18.5048L28.2953 14.1838C28.3758 14.0966 28.4814 14.0524 28.587 14.0524ZM24.8036 14.4997L22.9995 12.5457L21.1958 14.4997L22.9995 16.4542L24.8036 14.4997ZM22.9995 11.466C23.1054 11.466 23.211 11.5098 23.2915 11.597L25.6792 14.1834C25.7567 14.2674 25.8002 14.3813 25.8002 14.4997C25.8002 14.6186 25.7567 14.7325 25.6792 14.8161L23.2915 17.4029C23.1305 17.5773 22.8692 17.5777 22.7079 17.4029L20.3205 14.8161C20.1591 14.6417 20.1591 14.3582 20.3205 14.1838L22.7079 11.597C22.7883 11.5098 22.8939 11.466 22.9995 11.466ZM21.4017 9.7314C21.5076 9.7314 21.6132 9.7748 21.6937 9.862C21.855 10.0368 21.855 10.3203 21.6937 10.4947L17.7048 14.8161C17.5434 14.9909 17.2821 14.9909 17.1207 14.8161C16.9598 14.6417 16.9598 14.3582 17.1207 14.1834L21.11 9.862C21.1905 9.7748 21.2961 9.7314 21.4017 9.7314ZM22.9995 8C23.1054 8 23.211 8.0438 23.2915 8.131L27.2774 12.4488C27.4388 12.6236 27.4388 12.9066 27.2774 13.081C27.1161 13.2558 26.8548 13.2558 26.6938 13.081L22.7079 8.76329C22.5465 8.5889 22.5465 8.3054 22.7079 8.131C22.7883 8.0438 22.8939 8 22.9995 8Z" fill="url(#paint2_linear_10_3974)"/>
<path d="M22.3832 11.7879C22.49 11.7879 22.5964 11.8312 22.6775 11.9184C22.8402 12.0933 22.8402 12.3767 22.6775 12.5511L18.66 16.8689C18.4973 17.0437 18.2343 17.0437 18.0716 16.8689C17.909 16.6941 17.909 16.411 18.0716 16.2366L22.0892 11.9184C22.1703 11.8312 22.2768 11.7879 22.3832 11.7879ZM20.1842 10.4997L18.366 8.54609L16.5478 10.4997L18.366 12.4542L20.1842 10.4997ZM18.366 7.46645C18.472 7.46645 18.5788 7.51025 18.66 7.59745L21.0669 10.1838C21.1446 10.2678 21.1888 10.3813 21.1888 10.4997C21.1888 10.6186 21.1446 10.7321 21.0669 10.8161L18.66 13.4029C18.5818 13.4868 18.4762 13.5334 18.366 13.5334C18.255 13.5334 18.1494 13.4868 18.0716 13.4029L15.6651 10.8161C15.5021 10.6417 15.5021 10.3582 15.6651 10.1838L18.0716 7.59745C18.1528 7.51025 18.2596 7.46645 18.366 7.46645ZM19.9778 5.73302C20.0846 5.73302 20.191 5.77642 20.2721 5.86362L22.8783 8.66411C23.0406 8.83892 23.0406 9.12201 22.8783 9.29641C22.716 9.47121 22.4522 9.47121 22.2896 9.29641L19.6838 6.49631C19.5211 6.32151 19.5211 6.03842 19.6838 5.86362C19.7649 5.77642 19.8713 5.73302 19.9778 5.73302ZM18.366 4C18.472 4 18.5788 4.0438 18.66 4.13141C18.8226 4.3058 18.8226 4.5889 18.66 4.76329L14.7103 9.00845C14.5477 9.18284 14.2843 9.18284 14.122 9.00845C13.9593 8.83364 13.9593 8.55055 14.122 8.37575L18.0716 4.13141C18.1528 4.0438 18.2596 4 18.366 4Z" fill="url(#paint3_linear_10_3974)"/>
<mask id="mask2_10_3974" style="mask-type:luminance" maskUnits="userSpaceOnUse" x="8" y="0" width="13" height="13">
<path d="M8.19788 0H20.8152V12.5603H8.19788V0Z" fill="white"/>
</mask>
<g mask="url(#mask2_10_3974)">
<path d="M16.3748 6.25899L14.505 4.3896L12.6352 6.25899L14.505 8.12955L16.3748 6.25899ZM14.505 3.35653C14.6144 3.35653 14.7239 3.39844 14.8077 3.48227L17.2829 5.95668C17.4498 6.12394 17.4498 6.39482 17.2829 6.5617L15.1104 8.73457L16.1633 9.78744L19.9944 5.95668C20.1613 5.7898 20.4322 5.7898 20.5994 5.95668C20.7663 6.12394 20.7663 6.39482 20.5994 6.5617L16.4679 10.6936C16.4466 10.7153 16.4229 10.7336 16.3985 10.7499C16.2327 10.8597 16.0065 10.8411 15.8602 10.6952L11.7271 6.5617C11.6472 6.48175 11.6018 6.37309 11.6018 6.25899C11.6018 6.14606 11.6472 6.03701 11.7271 5.95668L14.2027 3.48188C14.2861 3.39844 14.3956 3.35653 14.505 3.35653ZM14.505 0.039978C14.6144 0.039978 14.7239 0.081891 14.8077 0.165329L18.9408 4.2984C19.108 4.46528 19.108 4.73616 18.9408 4.90342C18.7735 5.0703 18.5026 5.0703 18.3358 4.90342L14.505 1.07305L9.31829 6.25899L14.8077 11.7488C14.9746 11.9161 14.9746 12.1866 14.8077 12.3538C14.6404 12.5211 14.37 12.5211 14.2027 12.3538L8.41057 6.5617C8.33023 6.48175 8.28522 6.37309 8.28522 6.25899C8.28522 6.14606 8.33023 6.03701 8.41057 5.95668L14.2027 0.165329C14.2861 0.081891 14.3956 0.039978 14.505 0.039978Z" fill="url(#paint4_linear_10_3974)"/>
</g>
<path d="M19.0143 20.9856C19.1199 20.9856 19.2255 21.026 19.306 21.1065C19.4673 21.2679 19.4673 21.5292 19.306 21.6905L17.7047 23.2921C17.5437 23.4531 17.282 23.4531 17.121 23.2921C16.9597 23.1311 16.9597 22.8694 17.121 22.7085L18.7223 21.1069C18.8028 21.026 18.9087 20.9856 19.0143 20.9856ZM24.8039 23.0001L23 21.1964L21.1962 23.0001L23 24.8042L24.8039 23.0001ZM23 20.1998C23.1094 20.1998 23.2146 20.2432 23.2917 20.3207L25.6795 22.7085C25.8409 22.8694 25.8409 23.1311 25.6795 23.2921L23.2917 25.6799C23.1371 25.8345 22.863 25.8345 22.708 25.6799L20.3205 23.2921C20.1592 23.1311 20.1592 22.8694 20.3205 22.7085L22.708 20.3207C22.7855 20.2432 22.8904 20.1998 23 20.1998ZM23 17C23.1056 17 23.2112 17.0404 23.2917 17.1209L28.8791 22.7085C28.9566 22.7856 29 22.8908 29 23.0001C29 23.1098 28.9566 23.2146 28.8791 23.2921L23.2917 28.8793C23.1307 29.0402 22.8694 29.0402 22.708 28.8793L18.7204 24.8918C18.559 24.7305 18.559 24.4691 18.7204 24.3078C18.8818 24.1468 19.1431 24.1468 19.3041 24.3078L23 28.0036L28.0034 23.0001L22.708 17.7049C22.547 17.5436 22.547 17.2823 22.708 17.1209C22.7889 17.0404 22.8945 17 23 17Z" fill="url(#paint5_linear_10_3974)"/>
<path d="M22.5988 20.078C22.7015 20.078 22.8041 20.1193 22.8823 20.202C23.0392 20.3667 23.0392 20.6339 22.8823 20.7989L19.0061 24.8765C18.8492 25.0412 18.5955 25.0412 18.4387 24.8765C18.2818 24.7115 18.2818 24.4443 18.4387 24.2792L22.3149 20.2016C22.3932 20.1193 22.4962 20.078 22.5988 20.078ZM20.4762 18.8639L18.7226 17.0192L16.969 18.8639L18.7226 20.7086L20.4762 18.8639ZM18.7226 16C18.8252 16 18.9278 16.0414 19.0061 16.1237L21.3275 18.5656C21.4843 18.7303 21.4843 18.9975 21.3275 19.1625L19.0061 21.6045C18.8558 21.763 18.5894 21.763 18.4387 21.6045L16.1177 19.1625C15.9608 18.9975 15.9608 18.7303 16.1177 18.5656L18.4387 16.1237C18.5169 16.0414 18.6199 16 18.7226 16Z" fill="url(#paint6_linear_10_3974)"/>
<path d="M10.1206 15.778C10.2327 15.778 10.3443 15.8218 10.4295 15.9094L14.6539 20.2364C14.8245 20.4112 14.8245 20.6943 14.6539 20.8691C14.4837 21.0434 14.2073 21.0439 14.0367 20.8691L9.81222 16.5417C9.64197 16.3669 9.64197 16.0838 9.81222 15.9094C9.89774 15.8218 10.0094 15.778 10.1206 15.778ZM16.253 14.5L14.3451 12.5456L12.4376 14.5L14.3451 16.4545L16.253 14.5ZM14.3451 11.4664C14.4567 11.4664 14.5688 11.5098 14.6539 11.597L17.1791 14.1837C17.3497 14.3585 17.3497 14.6416 17.1791 14.8164L14.6539 17.4027C14.4904 17.5706 14.2002 17.5706 14.0367 17.4031L11.5115 14.8164C11.4295 14.7324 11.3832 14.6185 11.3832 14.5C11.3832 14.3812 11.4295 14.2672 11.5115 14.1837L14.0367 11.597C14.1218 11.5098 14.2334 11.4664 14.3451 11.4664ZM12.6565 9.72974C12.7685 9.72974 12.8802 9.77314 12.9653 9.86034C13.136 10.0351 13.136 10.3186 12.9653 10.493L8.74522 14.816C8.57458 14.9908 8.29823 14.9908 8.12798 14.816C7.95734 14.6416 7.95734 14.3581 8.12798 14.1837L12.3481 9.86034C12.4332 9.77314 12.5448 9.72974 12.6565 9.72974ZM14.3451 8C14.4567 8 14.5688 8.0438 14.6539 8.131L18.872 12.4523C19.0427 12.6271 19.0427 12.9102 18.872 13.085C18.7014 13.2594 18.4254 13.2594 18.2548 13.0846L14.0367 8.76328C13.866 8.58888 13.866 8.3058 14.0367 8.131C14.1218 8.0438 14.2334 8 14.3451 8Z" fill="url(#paint7_linear_10_3974)"/>
<path d="M16.4542 23.0023L14.4997 21.1978L12.5457 23.0023L14.4997 24.8068L16.4542 23.0023ZM14.4997 20.2008C14.6186 20.2008 14.7325 20.2442 14.8161 20.3217L17.4029 22.7102C17.5773 22.8716 17.5773 23.133 17.4029 23.2941L14.8161 25.6828C14.6486 25.8379 14.3513 25.8379 14.1838 25.6828L11.597 23.2941C11.4226 23.133 11.4226 22.8716 11.597 22.7102L14.1838 20.3217C14.2678 20.2442 14.3813 20.2008 14.4997 20.2008ZM12.7667 18.6004C12.8815 18.6004 12.9959 18.6408 13.0831 18.7214C13.2579 18.8828 13.2579 19.1438 13.0831 19.3053L9.07964 23.0023L14.4997 28.008L20.2366 22.7102C20.411 22.5491 20.6941 22.5491 20.8689 22.7102C21.0437 22.8716 21.0437 23.133 20.8689 23.2941L14.8161 28.884C14.6486 29.0387 14.3513 29.0387 14.1838 28.884L8.131 23.2941C8.04705 23.2169 8 23.1117 8 23.0023C8 22.8929 8.04705 22.7877 8.131 22.7102L12.4508 18.7214C12.538 18.6408 12.6524 18.6004 12.7667 18.6004ZM14.4997 17C14.6145 17 14.7289 17.0404 14.8161 17.121L19.1436 21.1173C19.3184 21.2783 19.3184 21.5397 19.1436 21.7012C18.9688 21.8622 18.6857 21.8622 18.5109 21.7012L14.1838 17.7049C14.009 17.5434 14.009 17.2824 14.1838 17.121C14.271 17.0404 14.3854 17 14.4997 17Z" fill="url(#paint8_linear_10_3974)"/>
<mask id="mask3_10_3974" style="mask-type:luminance" maskUnits="userSpaceOnUse" x="0" y="8" width="13" height="13">
<path d="M0 8.28827H12.8672V20.8062H0V8.28827Z" fill="white"/>
</mask>
<g mask="url(#mask3_10_3974)">
<path d="M8.09929 14.5166L6.22951 12.6464L4.35973 14.5166L6.22951 16.3864L8.09929 14.5166ZM6.22951 11.6138C6.33895 11.6138 6.44878 11.6553 6.53221 11.7387L9.0074 14.2139C9.08735 14.2942 9.13275 14.4029 9.13275 14.5166C9.13275 14.6299 9.08735 14.7386 9.0074 14.8189L6.53221 17.2941C6.36495 17.461 6.09446 17.461 5.92719 17.2941L3.45201 14.8189C3.28513 14.652 3.28513 14.3812 3.45201 14.2139L5.92719 11.7387C6.01063 11.6553 6.12007 11.6138 6.22951 11.6138ZM6.22951 8.29681C6.33895 8.29681 6.44878 8.33834 6.53221 8.42216L10.673 12.563C10.8395 12.7303 10.8395 13.0008 10.673 13.168C10.5054 13.3353 10.2349 13.3353 10.068 13.168L6.22951 9.32989L1.04279 14.5166L6.22951 19.7029L12.0511 13.8813C12.2188 13.7144 12.4893 13.7141 12.6561 13.8813C12.8234 14.0486 12.8234 14.3195 12.6561 14.4863L6.53221 20.611C6.45149 20.6906 6.34322 20.736 6.22951 20.736C6.1158 20.736 6.00714 20.6906 5.92719 20.611L0.135457 14.8189C-0.0318061 14.652 -0.0318061 14.3812 0.135457 14.2139L5.92719 8.42216C6.01063 8.33834 6.12007 8.29681 6.22951 8.29681Z" fill="url(#paint9_linear_10_3974)"/>
</g>
<defs>
<linearGradient id="paint0_linear_10_3974" x1="23.7434" y1="32.9628" x2="41.6369" y2="31.4301" gradientUnits="userSpaceOnUse">
<stop stop-color="#9A328C"/>
<stop offset="1" stop-color="#08C498"/>
</linearGradient>
<linearGradient id="paint1_linear_10_3974" x1="17.7196" y1="24.6955" x2="32.6781" y2="23.6268" gradientUnits="userSpaceOnUse">
<stop stop-color="#9A328C"/>
<stop offset="1" stop-color="#08C498"/>
</linearGradient>
<linearGradient id="paint2_linear_10_3974" x1="18.1272" y1="33.7679" x2="32.5684" y2="32.8155" gradientUnits="userSpaceOnUse">
<stop stop-color="#9A328C"/>
<stop offset="1" stop-color="#08C498"/>
</linearGradient>
<linearGradient id="paint3_linear_10_3974" x1="14.8454" y1="29.7679" x2="25.6969" y2="29.2311" gradientUnits="userSpaceOnUse">
<stop stop-color="#9A328C"/>
<stop offset="1" stop-color="#08C498"/>
</linearGradient>
<linearGradient id="paint4_linear_10_3974" x1="9.45366" y1="24.6964" x2="24.4124" y2="23.6277" gradientUnits="userSpaceOnUse">
<stop stop-color="#9A328C"/>
<stop offset="1" stop-color="#08C498"/>
</linearGradient>
<linearGradient id="paint5_linear_10_3974" x1="18.1272" y1="40.7857" x2="32.5576" y2="39.7547" gradientUnits="userSpaceOnUse">
<stop stop-color="#9A328C"/>
<stop offset="1" stop-color="#08C498"/>
</linearGradient>
<linearGradient id="paint6_linear_10_3974" x1="16.6575" y1="33.8393" x2="25.0922" y2="33.3706" gradientUnits="userSpaceOnUse">
<stop stop-color="#9A328C"/>
<stop offset="1" stop-color="#08C498"/>
</linearGradient>
<linearGradient id="paint7_linear_10_3974" x1="9.03324" y1="33.7679" x2="22.2802" y2="32.967" gradientUnits="userSpaceOnUse">
<stop stop-color="#9A328C"/>
<stop offset="1" stop-color="#08C498"/>
</linearGradient>
<linearGradient id="paint8_linear_10_3974" x1="9.2211" y1="40.7857" x2="24.8403" y2="39.5768" gradientUnits="userSpaceOnUse">
<stop stop-color="#9A328C"/>
<stop offset="1" stop-color="#08C498"/>
</linearGradient>
<linearGradient id="paint9_linear_10_3974" x1="1.20965" y1="32.9531" x2="16.5637" y2="31.8268" gradientUnits="userSpaceOnUse">
<stop stop-color="#9A328C"/>
<stop offset="1" stop-color="#08C498"/>
</linearGradient>
</defs>
</svg>
