<svg width="26" height="20" viewBox="0 0 26 20" fill="none" xmlns="http://www.w3.org/2000/svg">
<path d="M16.8333 4.984V0H8.49996V10.0298H0.166626V20H8.49996H16.8333H25.1666V4.984H16.8333Z" fill="#9A328C"/>
<path d="M11.7386 3.65553V4.40804C11.9641 4.37604 12.3573 4.24033 12.5627 4.1024V8.17832H13.3959V2.93723H12.8065C12.5416 3.27045 12.1236 3.55733 11.7377 3.65443L11.7386 3.65553Z" fill="#260D23"/>
<path d="M20.2251 11.4642C20.3113 11.1729 20.5615 10.8342 21.1188 10.3454C21.9191 9.64581 22.1941 9.29714 22.1941 8.52588C22.1941 7.75461 21.8137 6.97562 20.7458 6.97562C19.786 6.97562 19.3029 7.69834 19.2351 8.59539H20.0298C20.1004 8.0779 20.2856 7.75792 20.7458 7.75792C21.1647 7.75792 21.3636 8.06135 21.3636 8.53801C21.3636 9.01468 21.1766 9.22763 20.5349 9.80139C19.61 10.6234 19.2452 11.3781 19.2452 12.2355V12.2984H22.2518L22.3572 11.4631H20.2242L20.2251 11.4642Z" fill="#260D23"/>
<path d="M5.1936 14.2039V14.1829C5.44018 14.0549 5.74543 13.7471 5.74543 13.1149C5.74543 12.3921 5.31185 11.7147 4.34111 11.7147C3.30987 11.7147 2.93129 12.476 2.86804 13.1193H3.65178C3.71137 12.807 3.84611 12.497 4.31361 12.497C4.72427 12.497 4.93052 12.7673 4.93052 13.1645C4.93052 13.639 4.73069 13.8453 4.25128 13.8453H3.93595V14.6177H4.29986C4.83335 14.6177 5.09002 14.9178 5.09002 15.4739C5.09002 15.9704 4.85994 16.3621 4.35944 16.3621C3.85895 16.3621 3.63987 16.019 3.57112 15.6262H2.76996C2.82129 16.3202 3.22645 17.1334 4.33286 17.1334C5.5236 17.1334 5.92051 16.2672 5.92051 15.486C5.92051 14.7048 5.5126 14.3385 5.1936 14.205V14.2039Z" fill="#260D23"/>
</svg>
