<svg width="56" height="43" viewBox="0 0 56 43" fill="none" xmlns="http://www.w3.org/2000/svg">
<mask id="mask0_10_3894" style="mask-type:luminance" maskUnits="userSpaceOnUse" x="33" y="12" width="23" height="19">
<path d="M33.0736 12.2895H55.2415V30.8506H33.0736V12.2895Z" fill="white"/>
</mask>
<g mask="url(#mask0_10_3894)">
<path d="M48.7915 21.539L46.0191 18.7672L43.2466 21.539L46.0191 24.3114L48.7915 21.539ZM46.0191 12.3171C46.1813 12.3171 46.3436 12.3793 46.4673 12.503L55.0556 21.0907C55.1742 21.2099 55.2409 21.371 55.2409 21.539C55.2409 21.7076 55.1742 21.8687 55.0556 21.9878L46.4673 30.5756C46.2199 30.823 45.8182 30.823 45.5702 30.5756L39.8901 24.8961L39.8245 24.9617C39.5765 25.2091 39.1749 25.2091 38.9274 24.9617C38.6794 24.7137 38.6794 24.312 38.9274 24.064L45.5702 17.4212C45.8182 17.1732 46.2199 17.1732 46.4673 17.4212L50.1374 21.0907C50.2565 21.2099 50.3233 21.371 50.3233 21.539C50.3233 21.7076 50.2565 21.8687 50.1374 21.9878L46.4673 25.6574C46.2199 25.9054 45.8182 25.9054 45.5702 25.6574L42.349 22.4367L40.7872 23.9984L46.0191 29.2297L53.7091 21.539L46.0191 13.8489L34.2118 25.6557C33.9638 25.9037 33.5627 25.9037 33.3147 25.6557C33.0667 25.4076 33.0667 25.0066 33.3147 24.7591L45.5702 12.503C45.6939 12.3793 45.8562 12.3171 46.0191 12.3171Z" fill="url(#paint0_linear_10_3894)"/>
</g>
<mask id="mask1_10_3894" style="mask-type:luminance" maskUnits="userSpaceOnUse" x="24" y="0" width="20" height="19">
<path d="M24.5295 0H43.0907V18.6239H24.5295V0Z" fill="white"/>
</mask>
<g mask="url(#mask1_10_3894)">
<path d="M27.6357 11.1053C27.798 11.1053 27.9609 11.1668 28.0846 11.2911L34.2124 17.4195C34.4604 17.6669 34.4604 18.0686 34.2124 18.3166C33.9643 18.564 33.5627 18.564 33.3153 18.3166L27.1875 12.1882C26.9395 11.9408 26.9395 11.5386 27.1875 11.2911C27.3112 11.1668 27.4735 11.1053 27.6357 11.1053ZM36.536 9.28L33.7641 6.50757L30.9911 9.28L33.7641 12.0524L36.536 9.28ZM33.7641 4.9752C33.9321 4.9752 34.0932 5.04252 34.2124 5.16164L37.8819 8.83174C38.1299 9.07918 38.1299 9.48083 37.8819 9.72884L34.2124 13.3989C33.9747 13.6366 33.5529 13.6366 33.3153 13.3989L29.6452 9.72884C29.3977 9.48083 29.3977 9.07918 29.6452 8.83174L33.3153 5.16164C33.4344 5.04252 33.5955 4.9752 33.7641 4.9752ZM33.7641 0.0575562C33.9321 0.0575562 34.0932 0.124306 34.2124 0.243421L42.8001 8.83174C43.0475 9.07918 43.0475 9.48083 42.8001 9.72884L36.6746 15.8555C36.4272 16.1035 36.0255 16.1035 35.7775 15.8555C35.5295 15.608 35.5295 15.2064 35.777 14.9584L41.4542 9.28L33.7641 1.58936L25.624 9.72884C25.3766 9.97628 24.9755 9.97628 24.7275 9.72884C24.4795 9.48083 24.4795 9.07918 24.7275 8.83174L33.3153 0.243421C33.4344 0.124306 33.5955 0.0575562 33.7641 0.0575562Z" fill="url(#paint1_linear_10_3894)"/>
</g>
<path d="M28.1886 23.4042C28.3452 23.4042 28.5017 23.4685 28.6211 23.5978L34.5357 30.006C34.7749 30.2646 34.7749 30.6849 34.5357 30.9435C34.297 31.2027 33.9095 31.2027 33.6703 30.9435L27.7557 24.5353C27.5164 24.2767 27.5164 23.857 27.7557 23.5978C27.875 23.4685 28.0321 23.4042 28.1886 23.4042ZM42.3876 20.8363C42.5441 20.8363 42.7012 20.9019 42.8206 21.0311C43.0598 21.2897 43.0598 21.7101 42.8206 21.9687L36.906 28.3763C36.6667 28.6349 36.2793 28.6349 36.04 28.3763C35.8013 28.1171 35.8013 27.6973 36.04 27.4381L41.9552 21.0311C42.0745 20.9019 42.2311 20.8363 42.3876 20.8363ZM36.7777 21.4996L34.1027 18.6022L31.4282 21.4996L34.1027 24.3976L36.7777 21.4996ZM34.1027 17.0014C34.2598 17.0014 34.4163 17.0663 34.5357 17.1956L38.0761 21.0305C38.191 21.155 38.2554 21.324 38.2554 21.4996C38.2554 21.6758 38.191 21.8448 38.0761 21.9687L34.5357 25.8042C34.297 26.0628 33.9095 26.0634 33.6703 25.8042L30.1304 21.9687C29.8911 21.7101 29.8911 21.2897 30.1304 21.0311L33.6703 17.1956C33.7896 17.0663 33.9462 17.0014 34.1027 17.0014ZM31.7335 14.4293C31.8906 14.4293 32.0472 14.4937 32.1665 14.6229C32.4058 14.8821 32.4058 15.3025 32.1665 15.5611L26.2519 21.9687C26.0126 22.2279 25.6252 22.2279 25.3859 21.9687C25.1472 21.7101 25.1472 21.2897 25.3859 21.0305L31.3011 14.6229C31.4204 14.4937 31.577 14.4293 31.7335 14.4293ZM34.1027 11.8621C34.2598 11.8621 34.4163 11.927 34.5357 12.0563L40.4459 18.4585C40.6851 18.7177 40.6851 19.1374 40.4459 19.396C40.2066 19.6552 39.8191 19.6552 39.5804 19.396L33.6703 12.9938C33.431 12.7352 33.431 12.3149 33.6703 12.0563C33.7896 11.927 33.9462 11.8621 34.1027 11.8621Z" fill="url(#paint2_linear_10_3894)"/>
<path d="M33.1889 17.4785C33.3472 17.4785 33.505 17.5429 33.6254 17.6722C33.8665 17.9314 33.8665 18.3517 33.6254 18.6103L27.6683 25.0125C27.4271 25.2717 27.0371 25.2717 26.7959 25.0125C26.5547 24.7533 26.5547 24.3336 26.7959 24.075L32.753 17.6722C32.8733 17.5429 33.0311 17.4785 33.1889 17.4785ZM29.9283 15.5686L27.2324 12.6718L24.5364 15.5686L27.2324 18.4666L29.9283 15.5686ZM27.2324 11.0709C27.3896 11.0709 27.548 11.1359 27.6683 11.2652L31.2371 15.1001C31.3524 15.2246 31.4179 15.393 31.4179 15.5686C31.4179 15.7448 31.3524 15.9132 31.2371 16.0377L27.6683 19.8732C27.5524 19.9977 27.3958 20.0668 27.2324 20.0668C27.0679 20.0668 26.9112 19.9977 26.7959 19.8732L23.2276 16.0377C22.9859 15.7791 22.9859 15.3587 23.2276 15.1001L26.7959 11.2652C26.9162 11.1359 27.0746 11.0709 27.2324 11.0709ZM29.6223 8.50068C29.7806 8.50068 29.9384 8.56503 30.0587 8.69433L33.923 12.8468C34.1636 13.106 34.1636 13.5257 33.923 13.7843C33.6824 14.0435 33.2913 14.0435 33.0501 13.7843L29.1864 9.63246C28.9452 9.37327 28.9452 8.95352 29.1864 8.69433C29.3067 8.56503 29.4645 8.50068 29.6223 8.50068ZM27.2324 5.93103C27.3896 5.93103 27.548 5.99598 27.6683 6.12587C27.9094 6.38446 27.9094 6.80422 27.6683 7.06281L21.8119 13.3573C21.5707 13.6159 21.1802 13.6159 20.9395 13.3573C20.6984 13.0982 20.6984 12.6784 20.9395 12.4192L26.7959 6.12587C26.9162 5.99598 27.0746 5.93103 27.2324 5.93103Z" fill="url(#paint3_linear_10_3894)"/>
<mask id="mask2_10_3894" style="mask-type:luminance" maskUnits="userSpaceOnUse" x="12" y="0" width="19" height="19">
<path d="M12.1555 0H30.864V18.6239H12.1555V0Z" fill="white"/>
</mask>
<g mask="url(#mask2_10_3894)">
<path d="M24.2799 9.28056L21.5075 6.50871L18.7351 9.28056L21.5075 12.0541L24.2799 9.28056ZM21.5075 4.97691C21.6698 4.97691 21.832 5.03905 21.9563 5.16335L25.6264 8.8323C25.8739 9.08031 25.8739 9.48196 25.6264 9.7294L22.4052 12.9512L23.9663 14.5124L29.647 8.8323C29.8944 8.58487 30.2961 8.58487 30.5441 8.8323C30.7915 9.08031 30.7915 9.48196 30.5441 9.7294L24.418 15.856C24.3864 15.8882 24.3513 15.9153 24.315 15.9395C24.0693 16.1023 23.7338 16.0747 23.5169 15.8583L17.3885 9.7294C17.27 9.61086 17.2027 9.44974 17.2027 9.28056C17.2027 9.11311 17.27 8.95142 17.3885 8.8323L21.0592 5.16277C21.1829 5.03905 21.3452 4.97691 21.5075 4.97691ZM21.5075 0.0592651C21.6698 0.0592651 21.832 0.121412 21.9563 0.24513L28.0847 6.37348C28.3327 6.62092 28.3327 7.02257 28.0847 7.27058C27.8367 7.51801 27.435 7.51801 27.1876 7.27058L21.5075 1.59107L13.8168 9.28056L21.9563 17.4206C22.2038 17.6686 22.2038 18.0697 21.9563 18.3177C21.7083 18.5657 21.3072 18.5657 21.0592 18.3177L12.4709 9.7294C12.3518 9.61086 12.285 9.44974 12.285 9.28056C12.285 9.11311 12.3518 8.95142 12.4709 8.8323L21.0592 0.24513C21.1829 0.121412 21.3452 0.0592651 21.5075 0.0592651Z" fill="url(#paint4_linear_10_3894)"/>
</g>
<path d="M28.1936 31.1166C28.3502 31.1166 28.5067 31.1765 28.6261 31.2959C28.8653 31.5351 28.8653 31.9226 28.6261 32.1618L26.2518 34.5366C26.0131 34.7753 25.6251 34.7753 25.3864 34.5366C25.1471 34.2979 25.1471 33.9099 25.3864 33.6712L27.7606 31.2964C27.88 31.1765 28.0371 31.1166 28.1936 31.1166ZM36.7781 34.1036L34.1035 31.4291L31.4289 34.1036L34.1035 36.7787L36.7781 34.1036ZM34.1035 29.9514C34.2656 29.9514 34.4216 30.0158 34.536 30.1307L38.0766 33.6712C38.3158 33.9099 38.3158 34.2979 38.0766 34.5366L34.536 38.0771C34.3067 38.3063 33.9004 38.3063 33.6705 38.0771L30.1305 34.5366C29.8912 34.2979 29.8912 33.9099 30.1305 33.6712L33.6705 30.1307C33.7854 30.0158 33.9409 29.9514 34.1035 29.9514ZM34.1035 25.2069C34.2601 25.2069 34.4166 25.2669 34.536 25.3862L42.8207 33.6712C42.9356 33.7855 43 33.9415 43 34.1036C43 34.2662 42.9356 34.4217 42.8207 34.5366L34.536 42.821C34.2973 43.0597 33.9098 43.0597 33.6705 42.821L27.7579 36.9086C27.5186 36.6693 27.5186 36.2818 27.7579 36.0426C27.9971 35.8039 28.3846 35.8039 28.6233 36.0426L34.1035 41.5226L41.5223 34.1036L33.6705 26.2522C33.4318 26.0129 33.4318 25.6255 33.6705 25.3862C33.7904 25.2669 33.947 25.2069 34.1035 25.2069Z" fill="url(#paint5_linear_10_3894)"/>
<path d="M33.5086 29.7708C33.6608 29.7708 33.813 29.8321 33.929 29.9547C34.1616 30.1989 34.1616 30.5951 33.929 30.8398L28.1814 36.8859C27.9488 37.13 27.5727 37.13 27.3401 36.8859C27.1075 36.6412 27.1075 36.245 27.3401 36.0003L33.0876 29.9542C33.2037 29.8321 33.3564 29.7708 33.5086 29.7708ZM30.3612 27.9706L27.761 25.2354L25.1609 27.9706L27.761 30.7058L30.3612 27.9706ZM27.761 23.7242C27.9132 23.7242 28.0654 23.7855 28.1814 23.9075L31.6235 27.5284C31.8561 27.7725 31.8561 28.1687 31.6235 28.4134L28.1814 32.0343C27.9586 32.2693 27.5635 32.2693 27.3401 32.0343L23.8986 28.4134C23.666 28.1687 23.666 27.7725 23.8986 27.5284L27.3401 23.9075C27.4561 23.7855 27.6088 23.7242 27.761 23.7242Z" fill="url(#paint6_linear_10_3894)"/>
<path d="M15.0065 23.3949C15.1726 23.3949 15.3381 23.4599 15.4644 23.5897L21.7282 30.0056C21.9812 30.2648 21.9812 30.6846 21.7282 30.9438C21.4758 31.2023 21.066 31.2029 20.813 30.9438L14.5491 24.5273C14.2967 24.2681 14.2967 23.8483 14.5491 23.5897C14.6759 23.4599 14.8415 23.3949 15.0065 23.3949ZM24.0993 21.5L21.2703 18.6021L18.4419 21.5L21.2703 24.398L24.0993 21.5ZM21.2703 17.0019C21.4358 17.0019 21.602 17.0662 21.7282 17.1955L25.4724 21.031C25.7254 21.2902 25.7254 21.7099 25.4724 21.9691L21.7282 25.804C21.4857 26.0529 21.0554 26.0529 20.813 25.8046L17.0688 21.9691C16.9472 21.8446 16.8786 21.6756 16.8786 21.5C16.8786 21.3238 16.9472 21.1548 17.0688 21.031L20.813 17.1955C20.9392 17.0662 21.1047 17.0019 21.2703 17.0019ZM18.7665 14.4269C18.9327 14.4269 19.0982 14.4912 19.2244 14.6205C19.4774 14.8797 19.4774 15.3 19.2244 15.5586L12.967 21.9685C12.714 22.2277 12.3043 22.2277 12.0518 21.9685C11.7988 21.7099 11.7988 21.2896 12.0518 21.031L18.3092 14.6205C18.4354 14.4912 18.601 14.4269 18.7665 14.4269ZM21.2703 11.8621C21.4358 11.8621 21.602 11.927 21.7282 12.0563L27.9826 18.4638C28.2357 18.723 28.2357 19.1427 27.9826 19.4019C27.7296 19.6605 27.3204 19.6605 27.0674 19.4013L20.813 12.9938C20.56 12.7352 20.56 12.3155 20.813 12.0563C20.9392 11.927 21.1047 11.8621 21.2703 11.8621Z" fill="url(#paint7_linear_10_3894)"/>
<path d="M24.3976 34.1069L21.4996 31.4312L18.6022 34.1069L21.4996 36.7825L24.3976 34.1069ZM21.4996 29.9529C21.6758 29.9529 21.8448 30.0173 21.9687 30.1323L25.8042 33.6737C26.0628 33.913 26.0628 34.3007 25.8042 34.5395L21.9687 38.0815C21.7203 38.3114 21.2795 38.3114 21.0311 38.0815L17.1956 34.5395C16.937 34.3007 16.937 33.913 17.1956 33.6737L21.0311 30.1323C21.1556 30.0173 21.324 29.9529 21.4996 29.9529ZM18.93 27.5799C19.1001 27.5799 19.2697 27.6399 19.399 27.7593C19.6582 27.9986 19.6582 28.3857 19.399 28.6251L13.4629 34.1069L21.4996 41.529L30.006 33.6737C30.2646 33.4349 30.6843 33.4349 30.9435 33.6737C31.2027 33.913 31.2027 34.3007 30.9435 34.5395L21.9687 42.828C21.7203 43.0574 21.2795 43.0574 21.0311 42.828L12.0563 34.5395C11.9318 34.4251 11.8621 34.269 11.8621 34.1069C11.8621 33.9447 11.9318 33.7887 12.0563 33.6737L18.4615 27.7593C18.5908 27.6399 18.7604 27.5799 18.93 27.5799ZM21.4996 25.2069C21.6698 25.2069 21.8394 25.2669 21.9687 25.3863L28.3853 31.3118C28.6445 31.5506 28.6445 31.9382 28.3853 32.1776C28.1261 32.4164 27.7064 32.4164 27.4472 32.1776L21.0311 26.2521C20.772 26.0127 20.772 25.6256 21.0311 25.3863C21.1604 25.2669 21.33 25.2069 21.4996 25.2069Z" fill="url(#paint8_linear_10_3894)"/>
<mask id="mask3_10_3894" style="mask-type:luminance" maskUnits="userSpaceOnUse" x="0" y="12" width="20" height="19">
<path d="M0 12.2895H19.079V30.8506H0V12.2895Z" fill="white"/>
</mask>
<g mask="url(#mask3_10_3894)">
<path d="M12.0092 21.5246L9.23679 18.7516L6.46436 21.5246L9.23679 24.2971L12.0092 21.5246ZM9.23679 17.2204C9.39906 17.2204 9.56191 17.282 9.68562 17.4057L13.3557 21.0758C13.4743 21.1949 13.5416 21.356 13.5416 21.5246C13.5416 21.6927 13.4743 21.8538 13.3557 21.9729L9.68562 25.643C9.43761 25.8904 9.03654 25.8904 8.78853 25.643L5.11842 21.9729C4.87098 21.7255 4.87098 21.3238 5.11842 21.0758L8.78853 17.4057C8.91224 17.282 9.07452 17.2204 9.23679 17.2204ZM9.23679 12.3022C9.39906 12.3022 9.56191 12.3638 9.68562 12.488L15.8255 18.6279C16.0723 18.8759 16.0723 19.277 15.8255 19.525C15.5769 19.773 15.1758 19.773 14.9284 19.525L9.23679 13.834L1.54614 21.5246L9.23679 29.2147L17.8688 20.5827C18.1174 20.3352 18.5185 20.3346 18.7659 20.5827C19.014 20.8307 19.014 21.2323 18.7659 21.4797L9.68562 30.5612C9.56593 30.6792 9.40539 30.7465 9.23679 30.7465C9.06819 30.7465 8.90706 30.6792 8.78853 30.5612L0.200779 21.9729C-0.0472323 21.7255 -0.0472323 21.3238 0.200779 21.0758L8.78853 12.488C8.91224 12.3638 9.07452 12.3022 9.23679 12.3022Z" fill="url(#paint9_linear_10_3894)"/>
</g>
<defs>
<linearGradient id="paint0_linear_10_3894" x1="35.2057" y1="48.8758" x2="61.7375" y2="46.6033" gradientUnits="userSpaceOnUse">
<stop stop-color="#9A328C"/>
<stop offset="1" stop-color="#08C498"/>
</linearGradient>
<linearGradient id="paint1_linear_10_3894" x1="26.274" y1="36.6174" x2="48.4537" y2="35.0328" gradientUnits="userSpaceOnUse">
<stop stop-color="#9A328C"/>
<stop offset="1" stop-color="#08C498"/>
</linearGradient>
<linearGradient id="paint2_linear_10_3894" x1="26.8782" y1="50.0696" x2="48.2911" y2="48.6574" gradientUnits="userSpaceOnUse">
<stop stop-color="#9A328C"/>
<stop offset="1" stop-color="#08C498"/>
</linearGradient>
<linearGradient id="paint3_linear_10_3894" x1="22.0122" y1="44.1385" x2="38.1023" y2="43.3427" gradientUnits="userSpaceOnUse">
<stop stop-color="#9A328C"/>
<stop offset="1" stop-color="#08C498"/>
</linearGradient>
<linearGradient id="paint4_linear_10_3894" x1="14.0175" y1="36.6188" x2="36.1978" y2="35.0341" gradientUnits="userSpaceOnUse">
<stop stop-color="#9A328C"/>
<stop offset="1" stop-color="#08C498"/>
</linearGradient>
<linearGradient id="paint5_linear_10_3894" x1="26.8782" y1="60.4754" x2="48.275" y2="58.9467" gradientUnits="userSpaceOnUse">
<stop stop-color="#9A328C"/>
<stop offset="1" stop-color="#08C498"/>
</linearGradient>
<linearGradient id="paint6_linear_10_3894" x1="24.6991" y1="50.1755" x2="37.2056" y2="49.4805" gradientUnits="userSpaceOnUse">
<stop stop-color="#9A328C"/>
<stop offset="1" stop-color="#08C498"/>
</linearGradient>
<linearGradient id="paint7_linear_10_3894" x1="13.3941" y1="50.0696" x2="33.0362" y2="48.8821" gradientUnits="userSpaceOnUse">
<stop stop-color="#9A328C"/>
<stop offset="1" stop-color="#08C498"/>
</linearGradient>
<linearGradient id="paint8_linear_10_3894" x1="13.6727" y1="60.4754" x2="36.8321" y2="58.6829" gradientUnits="userSpaceOnUse">
<stop stop-color="#9A328C"/>
<stop offset="1" stop-color="#08C498"/>
</linearGradient>
<linearGradient id="paint9_linear_10_3894" x1="1.79355" y1="48.8615" x2="24.5599" y2="47.1915" gradientUnits="userSpaceOnUse">
<stop stop-color="#9A328C"/>
<stop offset="1" stop-color="#08C498"/>
</linearGradient>
</defs>
</svg>
