<svg width="35" height="51" viewBox="0 0 35 51" fill="none" xmlns="http://www.w3.org/2000/svg">
<path d="M14.15 25.428L22.4284 46.6471L26.9958 42.3176L33.1808 41.1758L22.152 14.8408L14.15 25.428Z" fill="#0076EB"/>
<path d="M24.6754 21.1753L16.1731 22.7513L14.4586 25.0197L15.7217 29.4567L18.9089 37.6259C22.0889 37.8702 25.3521 36.9526 27.9249 35.0642C28.6338 34.5439 29.2907 33.9533 29.8846 33.3049L25.1963 22.1101L24.6754 21.1753Z" fill="#006BD6"/>
<path d="M21.3322 25.8363L13.1597 50.5808L8.3414 46.6133L2.14324 45.9114L12.683 15.9153L21.3322 25.8363Z" fill="#007EFF"/>
<path d="M10.9477 20.8543L6.95186 32.2264C9.43998 34.2402 12.4239 35.6389 15.5655 36.2549C16.3005 36.399 17.0438 36.5009 17.7904 36.5604L21.3323 25.8363L18.3542 22.4202L10.9477 20.8543Z" fill="#0074EA"/>
<path d="M17.5001 17.5L33.6118 18.3478C34.0335 19.1869 34.1403 20.1797 33.9067 21.0893C33.6731 21.9989 33.1012 22.8175 32.3274 23.3495C31.9296 23.6231 31.484 23.8214 31.0265 23.9754C30.5819 24.1251 30.123 24.2349 29.6906 24.4168C29.3977 24.54 29.1186 24.6959 28.8601 24.8806L17.5001 17.5Z" fill="#E10000"/>
<path d="M17.5001 17.4999L31.0293 26.29C30.9749 27.2275 30.571 28.1408 29.9139 28.8117C29.2568 29.4827 28.3522 29.9056 27.416 29.9795C26.9348 30.0175 26.4497 29.9664 25.9765 29.8711C25.5166 29.7784 25.0644 29.644 24.5989 29.5853C24.2836 29.5456 23.964 29.5411 23.6477 29.5717L17.5001 17.4999Z" fill="#F60000"/>
<path d="M17.5 17.4999L24.8216 31.877C24.3058 32.6617 23.4993 33.2507 22.5948 33.5032C21.6902 33.7557 20.6954 33.6696 19.8477 33.2656C19.4119 33.0578 19.0174 32.7711 18.6552 32.4519C18.3032 32.1417 17.9788 31.7991 17.605 31.5156C17.3519 31.3236 17.0774 31.1598 16.7882 31.0283L17.5 17.4999Z" fill="#E10000"/>
<path d="M17.5 17.5L16.6522 33.6117C15.8131 34.0334 14.8203 34.1402 13.9107 33.9066C13.0011 33.673 12.1825 33.1011 11.6504 32.3273C11.3769 31.9295 11.1786 31.484 11.0245 31.0264C10.8748 30.5818 10.7651 30.1229 10.5832 29.6905C10.46 29.3976 10.3041 29.1185 10.1194 28.86L17.5 17.5Z" fill="#F60000"/>
<path d="M17.5 17.5L8.70996 31.0292C7.77244 30.9748 6.85919 30.5709 6.18823 29.9138C5.51728 29.2567 5.09435 28.3521 5.02048 27.4159C4.98242 26.9347 5.03355 26.4497 5.12887 25.9765C5.2215 25.5165 5.35598 25.0643 5.41465 24.5988C5.45437 24.2835 5.45889 23.9639 5.42811 23.6477L17.5 17.5Z" fill="#E10000"/>
<path d="M17.5 17.5L3.12297 24.8216C2.33821 24.3058 1.74934 23.4993 1.49679 22.5948C1.24429 21.6903 1.33032 20.6954 1.73444 19.8477C1.94215 19.4119 2.22886 19.0175 2.54802 18.6553C2.85824 18.3033 3.20076 17.9789 3.48432 17.6051C3.67634 17.3519 3.84015 17.0774 3.97164 16.7882L17.5 17.5Z" fill="#F60000"/>
<path d="M17.4999 17.5L1.38822 16.6522C0.966481 15.8131 0.859717 14.8203 1.09331 13.9106C1.32687 13.001 1.8988 12.1825 2.67267 11.6504C3.07041 11.3768 3.51598 11.1786 3.97346 11.0245C4.41814 10.8748 4.87697 10.7651 5.30944 10.5832C5.60229 10.4599 5.88141 10.3041 6.13988 10.1193L17.4999 17.5Z" fill="#E10000"/>
<path d="M17.4999 17.5L3.97067 8.70999C4.02505 7.77244 4.42893 6.85918 5.08602 6.18827C5.74312 5.51731 6.64774 5.09439 7.58394 5.02047C8.06515 4.98245 8.55015 5.03354 9.02339 5.12886C9.48333 5.22154 9.93556 5.35597 10.4011 5.41464C10.7163 5.4544 11.0359 5.45893 11.3522 5.42819L17.4999 17.5Z" fill="#F60000"/>
<path d="M17.5001 17.5L10.1783 3.12293C10.6942 2.33821 11.5007 1.7493 12.4052 1.4968C13.3098 1.24426 14.3046 1.33032 15.1523 1.7344C15.5881 1.94211 15.9826 2.22887 16.3448 2.54802C16.6968 2.85824 17.0212 3.20077 17.395 3.48433C17.6481 3.67635 17.9226 3.84012 18.2119 3.9716L17.5001 17.5Z" fill="#E10000"/>
<path d="M17.4999 17.5L18.3476 1.38835C19.1868 0.966658 20.1796 0.85985 21.0892 1.09341C21.9988 1.327 22.8173 1.89893 23.3495 2.67276C23.623 3.07054 23.8212 3.51607 23.9753 3.9736C24.1251 4.41824 24.2347 4.87707 24.4166 5.30954C24.5399 5.60242 24.6958 5.88151 24.8805 6.14002L17.4999 17.5Z" fill="#F60000"/>
<path d="M17.5 17.5L26.2901 3.97074C27.2276 4.02512 28.1408 4.42908 28.8118 5.08613C29.4827 5.74327 29.9056 6.64785 29.9795 7.58405C30.0176 8.0653 29.9665 8.5503 29.8712 9.02354C29.7785 9.48348 29.644 9.93567 29.5854 10.4012C29.5457 10.7164 29.5411 11.0361 29.5718 11.3523L17.5 17.5Z" fill="#E10000"/>
<path d="M17.5 17.5L31.877 10.1783C32.6618 10.6941 33.2506 11.5006 33.5032 12.4051C33.7557 13.3097 33.6697 14.3045 33.2656 15.1523C33.0578 15.588 32.7711 15.9825 32.4519 16.3447C32.1417 16.6967 31.7992 17.0211 31.5156 17.3949C31.3236 17.648 31.1599 17.9225 31.0283 18.2118L17.5 17.5Z" fill="#F60000"/>
<path d="M17.5 7.45917C23.0454 7.45917 27.5408 11.9546 27.5408 17.5C27.5408 23.0454 23.0454 27.5408 17.5 27.5408C11.9546 27.5408 7.4592 23.0454 7.4592 17.5C7.4592 11.9546 11.9546 7.45917 17.5 7.45917Z" fill="#CCCCCC"/>
<path d="M17.5001 9.05682C22.1631 9.05682 25.9432 12.8369 25.9432 17.5C25.9432 22.163 22.1631 25.9431 17.5001 25.9431C12.8371 25.9431 9.05693 22.163 9.05693 17.5C9.05693 12.8369 12.8371 9.05682 17.5001 9.05682Z" fill="#B3B3B3"/>
<path d="M14.047 22.86V21.082C16.217 19.29 18.527 17.512 18.527 15.79C18.527 15.048 18.191 14.572 17.463 14.572C16.749 14.572 16.329 15.132 16.329 16.098H14.019C14.089 13.62 15.699 12.556 17.561 12.556C19.885 12.556 20.921 13.914 20.921 15.636C20.921 17.876 18.919 19.668 17.295 20.914H21.075V22.86H14.047Z" fill="white"/>
</svg>
