<svg width="36" height="36" viewBox="0 0 36 36" fill="none" xmlns="http://www.w3.org/2000/svg">
<path d="M34.6612 2.84463L34.6551 2.85032L34.6492 2.85622L22.412 15.1112L22.2658 15.2576V15.4645V33.9091C22.2658 34.1779 22.2044 34.374 22.1065 34.5223C22.0096 34.6691 21.8542 34.8037 21.6078 34.913C21.4452 34.9745 21.3027 35 21.1772 35C20.8631 35 20.6236 34.8957 20.4234 34.6841L20.4236 34.684L20.414 34.6744L14.0596 28.3108C13.8354 28.0862 13.7342 27.8391 13.7342 27.5455V15.4645V15.2576L13.588 15.1112L1.35077 2.85622L1.34488 2.85032L1.3388 2.84463C1.14372 2.66187 1.04952 2.48571 1.01566 2.31614C0.981551 2.14537 0.999196 1.93352 1.1097 1.6649C1.21944 1.41443 1.35496 1.257 1.50255 1.15929C1.65048 1.06137 1.8459 1 2.11394 1H33.8861C34.1541 1 34.3495 1.06137 34.4974 1.15929C34.6451 1.257 34.7806 1.41446 34.8903 1.66497C35.0008 1.93356 35.0184 2.14538 34.9843 2.31614C34.9505 2.48571 34.8563 2.66187 34.6612 2.84463Z" fill="#732669" stroke="#E6B2DF"/>
</svg>
